<?xml version="1.0" encoding="UTF-8"?>
<svg width="378px" height="375px" viewBox="0 0 378 375" version="1.1" xmlns="http://www.w3.org/2000/svg" xmlns:xlink="http://www.w3.org/1999/xlink">
    <title>bottom-wobbles</title>
    <g id="Initial-design" stroke="none" stroke-width="1" fill="none" fill-rule="evenodd">
        <g id="Desktop-HD" transform="translate(-916.000000, -711.000000)" fill-rule="nonzero">
            <g id="bottom-wobbles" transform="translate(916.868313, 711.166749)">
                <path d="M203.342989,47 C131.816809,47 68.2056657,145.862004 68.2056657,211.900573 C68.2056657,277.939142 186.641783,343.437207 280.371184,322.160706 C374.100585,300.884204 267.85442,228.157702 251.348379,189.635203 C234.842337,151.112704 274.86917,47 203.342989,47 Z" id="Path-Copy-2" fill="#FFF3DE" transform="translate(193.381225, 186.624411) scale(-1, 1) rotate(-216.000000) translate(-193.381225, -186.624411) "></path>
                <path d="M290.131687,230.833251 C304.49109,230.833251 316.131687,219.15949 316.131687,204.759176 C316.131687,190.358863 304.49109,186.833251 290.131687,186.833251 C275.772283,186.833251 264.131687,190.358863 264.131687,204.759176 C264.131687,219.15949 275.772283,230.833251 290.131687,230.833251 Z" id="Oval" fill="#FFBE9E"></path>
                <path d="M5.00248072,157.865277 C5.3509744,212.055997 69.7959849,241.038926 119.867886,217.333911 C169.939787,193.628896 97.0690853,185.013063 69.0818309,174.756078 C41.0945766,164.499092 4.65398704,103.674557 5.00248072,157.865277 Z" id="Path-Copy-3" fill="#F1E2F5" transform="translate(71.000000, 180.676931) scale(-1, 1) rotate(-366.000000) translate(-71.000000, -180.676931) "></path>
            </g>
        </g>
    </g>
</svg>