<?xml version="1.0" encoding="UTF-8"?>
<svg width="20px" height="20px" viewBox="0 0 20 20" version="1.1" xmlns="http://www.w3.org/2000/svg" xmlns:xlink="http://www.w3.org/1999/xlink">
    <title>calendar [#1322] copy</title>
    <g id="Initial-design" stroke="none" stroke-width="1" fill="none" fill-rule="evenodd">
        <path d="M17.971246,7.9995 L1.99680511,7.9995 L1.99680511,4.9705 C1.99680511,4.4345 2.43111022,3.9995 2.96625399,3.9995 L3.99361022,3.9995 L3.99361022,5.9995 L5.99041534,5.9995 L5.99041534,3.9995 L13.9776358,3.9995 L13.9776358,5.9995 L15.9744409,5.9995 L15.9744409,3.9995 L16.9728435,3.9995 C17.5239617,3.9995 17.971246,4.4475 17.971246,4.9995 L17.971246,7.9995 Z M17.971246,16.9995 C17.971246,17.5495 17.5219649,17.9995 16.9728435,17.9995 L2.99520767,17.9995 C2.44408946,17.9995 1.99680511,17.5515 1.99680511,16.9995 L1.99680511,9.9995 L17.971246,9.9995 L17.971246,16.9995 Z M0.0638977636,17.7605 C0.0638977636,18.8645 1.02136581,19.9995 2.12360224,19.9995 L18.0980431,19.9995 C19.201278,19.9995 20,18.9785 20,17.7605 C20,17.3715 19.9680511,5.3595 19.9680511,4.7075 C19.9680511,2.6255 19.6875,1.9995 15.9744409,1.9995 L15.9744409,-0.0005 L13.9776358,-0.0005 L13.9776358,1.9995 L5.99041534,1.9995 L5.99041534,-0.0005 L3.99361022,-0.0005 L3.99361022,1.9995 L1.99680511,1.9995 C0.8985623,1.9995 0,2.8995 0,3.9995 L0.0638977636,17.7605 Z" id="calendar-[#1322]-copy" fill="#C988C5"></path>
    </g>
</svg>