<svg height="100" viewBox="0 0 582 100" width="582" xmlns="http://www.w3.org/2000/svg"><g fill="none" fill-rule="nonzero"><g transform="translate(67.8 2.344)"><path d="m22.4269545 46.4409356c1.84014 0 3.7480747-.3118599 5.723804-.9355798 1.9757292-.6237199 3.2831972-1.1304922 3.9224037-1.5203171.6392065-.389825 1.3074679-.7991411 2.0047841-1.2279485s1.3074679-.9160885 1.8304551-1.4618434.7844807-1.2279485.7844807-2.0465808-.4261376-1.910142-1.278413-3.2745292c-1.3946325-2.1830195-2.6924154-3.2745293-3.8933489-3.2745293-.5423571 0-1.472112.3898249-2.7892649 1.1694748l-1.0459743.7601585c-.4648775.31186-1.2299884.6237199-2.2953326.9355798s-2.1984831.4677899-3.3994165.4677899c-2.5568262 0-5.0168028-.8576148-7.37993-2.5728444-1.2009335-.8965973-2.1887982-2.1245457-2.963594-3.6838454-.7747958-1.5592996-1.1621937-3.3232573-1.1621937-5.2918731s.3873979-3.7325735 1.1621937-5.2918732c.7747958-1.5592996 1.7432906-2.7677568 2.9054843-3.6253716 2.4406067-1.7542121 4.9199533-2.6313182 7.4380397-2.6313182 2.7117853 0 4.8812135.6627024 6.5082847 1.9881071 1.278413.8576148 2.2662777 1.2864222 2.9635939 1.2864222 1.2009335 0 2.5568261-1.0525273 4.0676779-3.1575818.8135356-1.1304922 1.2203034-2.2122563 1.2203034-3.24529236 0-1.03303601-.5036172-1.95887017-1.5108518-2.77750248-.3873979-.27287743-.9297549-.62371985-1.6270712-1.05252725l-1.3946324-.81863231c-.9684947-.58473736-2.392182-1.1597291-4.2710618-1.72497522-1.8788799-.56524612-3.7287048-.84786918-5.549475-.84786918-3.8352392 0-7.6511085 1.05252726-11.4476079 3.15758176-2.01446906 1.09150975-3.80618435 2.44615131-5.37514584 4.06392468-1.5689615 1.61777336-2.85705951 3.66435416-3.86429405 6.13974236-1.00723454 2.4753881-1.51085181 5.2333994-1.51085181 8.2740337 0 3.0406342.51330222 5.8571192 1.53990665 8.4494549 1.02660444 2.5923356 2.33407235 4.7168814 3.92240374 6.3736372 1.58833138 1.6567559 3.38004667 3.0601256 5.37514581 4.210109 1.9950992 1.1499835 3.9320887 1.9686158 5.8109685 2.455897 1.8788799.4872811 3.7383898.7309217 5.5785298.7309217zm44.4635939-.5847374c2.4793466 0 3.9708285-.5067724 4.4744458-1.5203171.3099183-.5847374.4939323-1.1012554.552042-1.549554.0581097-.4482987.0871645-1.1207467.0871645-2.0173439v-10.2913776c0-4.2880741-1.288098-7.9134457-3.864294-10.876115-2.5761961-2.9626693-5.8012836-4.444004-9.6752626-4.444004-2.5955659 0-4.8618436 1.188966-6.7988331 3.5668979v-12.9226957c0-.89659729-.0290549-1.56904526-.0871646-2.0173439-.0581096-.44829865-.2421236-.96481665-.552042-1.54955402-.5036172-1.05252725-1.9757293-1.57879088-4.416336-1.57879088-2.4793466 0-3.9901984.52626363-4.5325554 1.57879088-.2711786.54575487-.4358227 1.04278163-.4939324 1.49108028s-.0871645 1.12074661-.0871645 2.0173439l.0007204 35.21617014c.0048024.8086451.0336171 1.4078801.0864441 1.797705.0581097.4288074.2227538.9355798.4939324 1.5203171.542357 1.0525273 2.0338389 1.5787909 4.4744457 1.5787909 2.4793466 0 3.9708285-.5067724 4.4744457-1.5203171.3099184-.5847374.4939324-1.1012554.552042-1.549554.0581097-.4482987.0871646-1.1207467.0871646-2.0173439v-11.3439049c.1549591-1.0525273.7554259-1.9978527 1.8014002-2.8359762 1.0459743-.8381236 2.2565928-1.2571854 3.6318553-1.2571854 1.3752626 0 2.5084014.4482987 3.3994166 1.344896.8910151.8965973 1.3365227 2.144037 1.3365227 3.7423191l.0007204 10.482263c.0048025.8118667.0336172 1.4304319.0864442 1.8556954.0581096.4677899.2421236.9940535.552042 1.5787909.5810968 1.0135447 2.0532088 1.5203171 4.416336 1.5203171zm36.1539086-.1169475c2.111319 0 3.438157-.5067723 3.980514-1.5203171.271178-.5847374.435822-1.1012554.493932-1.549554.05811-.4482987.087165-1.1207466.087165-2.0173439v-20.4658078c0-.8965972-.029055-1.5690452-.087165-2.0173439-.05811-.4482986-.232439-.9648166-.522987-1.549554-.290548-.5847373-.803851-.9940535-1.539907-1.2279484-.736056-.233895-1.85951-.3508425-3.370361-.3508425-2.8280051 0-4.3582268 1.0915098-4.5906655 3.2745293-.2711785-.3898249-.6198366-.7893955-1.0459743-1.1987116-.4261377-.4093162-1.1815636-.8478692-2.2662777-1.3156591-1.0847142-.4677899-2.2856477-.7016848-3.6028005-.7016848-3.4478413 0-6.6148191 1.5300628-9.5009335 4.5901883s-4.3291715 6.6270234-4.3291715 10.7006937 1.4333722 7.6503139 4.3001167 10.7299307c2.8667444 3.0796168 5.9756126 4.6194251 9.3266044 4.6194251s5.7431739-1.033036 7.1765461-3.099108c.1162194 1.0135448.5326721 1.783449 1.2493582 2.3097126s2.1306886.7893954 4.2420066.7893954zm-10.9536752-10.2329038c-1.4333722 0-2.6536756-.516518-3.6609102-1.549554-1.0072345-1.033036-1.5108518-2.1927651-1.5108518-3.4791873 0-1.2864223.4745625-2.4753882 1.4236873-3.566898.9491249-1.0915097 2.1887982-1.6372646 3.7190199-1.6372646s2.750525.5457549 3.6609101 1.6372646c.9103851 1.0915098 1.3655776 2.2707301 1.3655776 3.5376611 0 1.2669309-.4745624 2.42666-1.4236873 3.4791873-.9491248 1.0525273-2.1403734 1.5787909-3.5737456 1.5787909zm46.5845972 10.2913776c2.479347 0 3.990199-.5262636 4.532556-1.5787909.271178-.5457549.435822-1.0427816.493932-1.4910803.05811-.4482986.087165-1.1207466.087165-2.0173439v-10.2913776c0-4.288074-1.288099-7.9231913-3.864295-10.9053518-2.576196-2.9821606-5.801283-4.4732409-9.675262-4.4732409-1.588331 0-3.041074.4482987-4.358226 1.344896-.503618.3118599-1.026605.7211761-1.568962 1.2279484-.542357.5067724-.891015.8965973-1.045974 1.1694748 0-.9355798-.193699-1.7347209-.581097-2.3974232-.542357-.8965973-1.995099-1.344896-4.358227-1.344896-2.440606 0-3.932088.4872812-4.474445 1.4618435-.309919.5457548-.493933 1.0427816-.552042 1.4910802-.05811.4482987-.087165 1.1012554-.087165 1.9588702v20.6997027c0 .8965973.029055 1.5690452.087165 2.0173439.058109.4482986.222754.9648166.493932 1.549554.542357 1.0525273 2.033839 1.5787909 4.474446 1.5787909 2.479346 0 3.970828-.5262636 4.474446-1.5787909.309918-.5457549.493932-1.0427816.552042-1.4910803.058109-.4482986.087164-1.1207466.087164-2.0173439v-10.3498513c0-1.5203172.474563-2.7482656 1.423687-3.6838454.949125-.9355798 2.188799-1.4033697 3.71902-1.4033697 1.530222 0 2.750525.4482987 3.66091 1.3448959.910385.8965973 1.365578 2.144037 1.365578 3.7423192v10.2913776c0 1.3254047.116219 2.3194582.348658 2.9821605.426138 1.4423522 2.014469 2.1635283 4.764994 2.1635283zm24.967795 13.3320119c3.873979 0 7.36056-1.3741328 10.459743-4.1223984 3.099183-2.7482657 4.648775-6.3638917 4.648775-10.8468781l-.00072-24.4468544c-.004803-.7764281-.033618-1.3595546-.086445-1.7493795-.058109-.4288074-.232438-.9258342-.522987-1.4910803-.290548-.5652461-.78448-.9648167-1.481797-1.1987116-.697316-.233895-1.8014-.3508424-3.312252-.3508424s-2.605251.282623-3.283197.8478692c-.677946.5652461-1.075029 1.393624-1.191248 2.4851337-.232439-.3508424-.552042-.7309217-.95881-1.1402378-.406768-.4093162-1.152509-.8576148-2.237223-1.3448959-1.084714-.4872812-2.285648-.7309218-3.602801-.7309218-3.370361 0-6.469545 1.5008259-9.297549 4.5024777-2.828005 3.0016518-4.242007 6.4905848-4.242007 10.4667989 0 3.976214 1.404317 7.4554013 4.212952 10.4375619s5.820653 4.4732408 9.036056 4.4732408 5.55916-.9745622 7.031272-2.9236868v1.7542121c0 1.6372646-.464878 3.0406343-1.394633 4.210109-.929755 1.1694748-2.130688 1.7542121-3.6028 1.7542121-2.169428 0-4.183897-.7211761-6.043407-2.1635282-.581097-.4677899-1.142824-.7016849-1.685181-.7016849s-1.01692.15593-1.423687.4677899c-.406768.31186-.97818.8771061-1.714236 1.6957384-1.162194 1.1694747-1.743291 2.5143706-1.743291 4.0346878 0 1.1694747 1.336523 2.4753882 4.009569 3.9177403 2.673045 1.4423522 5.48168 2.1635283 8.425904 2.1635283zm-.087165-24.1496531c-1.414002 0-2.614935-.5067724-3.6028-1.5203172s-1.481797-2.144037-1.481797-3.3914767c0-1.2864222.464877-2.4558969 1.394632-3.5084242.929755-1.0525272 2.150059-1.5787909 3.66091-1.5787909 1.510852 0 2.711786.5360093 3.602801 1.6080278s1.336523 2.222002 1.336523 3.4499504c0 1.2279485-.464878 2.3584407-1.394633 3.3914767s-2.101633 1.5495541-3.515636 1.5495541zm36.444458 11.6362735c8.251575 0 12.377363-1.7347209 12.377363-5.2041625 0-.7406674-.251809-1.6372647-.755426-2.6897919-.891015-1.7542121-1.95636-2.6313182-3.196033-2.6313182-.619837 0-1.394632.2144037-2.324387.6432111l-.639207.233895c-1.278413.4677899-3.041073.7016848-5.287981.7016848-1.278413 0-2.556826-.3703336-3.835239-1.111001-1.278413-.7406673-1.91762-1.6567558-1.91762-2.7482656h13.771995c1.433373 0 2.74084-.5749917 3.922404-1.7249752s1.772345-2.9139412 1.772345-5.2918731c0-2.4169145-.658576-4.6389165-1.975729-6.666006-2.518086-3.8202841-6.469545-5.7304262-11.854376-5.7304262-4.726254 0-8.668028 1.4715891-11.82532 4.4147671-3.157293 2.9431781-4.73594 6.8706641-4.73594 11.7824579 0 3.8982491 1.220304 7.4261645 3.66091 10.5837463 1.239674 1.6372646 2.973279 2.9529237 5.200817 3.9469772s4.774679 1.4910803 7.641424 1.4910803zm1.627071-18.1268583h-7.32182c0-1.1694747.619836-2.2707301 1.85951-3.3037661 1.239673-1.033036 2.489031-1.549554 3.748074-1.549554s2.227538.2728774 2.905484.8186323c.677947.5457549 1.01692 1.266931 1.01692 2.1635282 0 1.2474398-.736056 1.8711596-2.208168 1.8711596zm48.889615 17.3666997c.852275 0 1.501167-.0292369 1.946674-.0877106.445508-.0584737.95881-.2241493 1.539907-.4970267 1.084714-.5457549 1.627071-2.0465808 1.627071-4.5024777 0-2.1050546-.445507-3.410968-1.336523-3.9177404-.542357-.3118599-1.055659-.4970267-1.539906-.5555005-.484248-.0584737-1.181564-.0877106-2.091949-.0877106s-1.530222-.2338949-1.85951-.7016848-.493932-1.2279485-.493932-2.2804757v-8.0693757l3.777129.233895c.891016 0 1.559277-.0292369 2.004784-.0877106.445508-.0584738.95881-.2241493 1.539907-.4970268 1.045974-.5457549 1.568962-2.0465808 1.568962-4.5024777 0-2.4948794-.503618-3.9957053-1.510852-4.5024777-.581097-.3118599-1.094399-.4970267-1.539907-.5555005-.445507-.0584737-1.104084-.0877106-1.975729-.0877106s-2.159743.077965-3.864294.233895v-5.7304262c0-1.36438718-.09685-2.3584407-.290549-2.98216055-.503617-1.44235217-2.072578-2.16352825-4.706884-2.16352825-2.479347 0-3.970829.48728114-4.474446 1.46184341-.309918.50677238-.493932.97456227-.552042 1.40336967s-.087164 1.09150975-.087164 1.98810704v6.02279488l-1.91762-.233895c-.929755 0-1.704551.2533862-2.324387.7601586-.348658.3118599-.619837.8283779-.813536 1.549554s-.290548 1.8809052-.290548 3.4791873.280863 2.7287744.84259 3.3914767c.561727.6627024 1.268728.9940535 2.121004.9940535.852275 0 1.646441-.0584737 2.382497-.1754212v8.654113c0 4.366039 1.045974 7.465147 3.137923 9.2973241 2.091948 1.8321771 5.152392 2.7482656 9.18133 2.7482656zm36.241073 0c2.479347 0 3.970829-.5067724 4.474446-1.5203171.309918-.5847374.493932-1.1012554.552042-1.549554.05811-.4482987.087165-1.1207467.087165-2.0173439v-10.2913776c0-4.2880741-1.288098-7.9134457-3.864294-10.876115s-5.801284-4.444004-9.675263-4.444004c-2.595566 0-4.861844 1.188966-6.798833 3.5668979v-12.9226957c0-.89659729-.029055-1.56904526-.087165-2.0173439-.058109-.44829865-.242123-.96481665-.552042-1.54955402-.503617-1.05252725-1.975729-1.57879088-4.416336-1.57879088-2.479346 0-3.990198.52626363-4.532555 1.57879088-.271179.54575487-.435823 1.04278163-.493932 1.49108028-.05811.44829865-.087165 1.12074661-.087165 2.0173439l.00072 35.21617014c.004803.8086451.033618 1.4078801.086445 1.797705.058109.4288074.222753.9355798.493932 1.5203171.542357 1.0525273 2.033839 1.5787909 4.474446 1.5787909 2.479346 0 3.970828-.5067724 4.474445-1.5203171.309919-.5847374.493933-1.1012554.552042-1.549554.05811-.4482987.087165-1.1207467.087165-2.0173439v-11.3439049c.154959-1.0525273.755426-1.9978527 1.8014-2.8359762 1.045974-.8381236 2.256593-1.2571854 3.631855-1.2571854 1.375263 0 2.508402.4482987 3.399417 1.344896s1.336523 2.144037 1.336523 3.7423191l.00072 10.482263c.004803.8118667.033617 1.4304319.086444 1.8556954.05811.4677899.242124.9940535.552042 1.5787909.581097 1.0135447 2.053209 1.5203171 4.416336 1.5203171zm26.362427.7601586c8.251576 0 12.377363-1.7347209 12.377363-5.2041625 0-.7406674-.251808-1.6372647-.755426-2.6897919-.891015-1.7542121-1.956359-2.6313182-3.196032-2.6313182-.619837 0-1.394633.2144037-2.324388.6432111l-.639206.233895c-1.278413.4677899-3.041074.7016848-5.287982.7016848-1.278413 0-2.556826-.3703336-3.835239-1.111001-1.278413-.7406673-1.917619-1.6567558-1.917619-2.7482656h13.771995c1.433372 0 2.74084-.5749917 3.922404-1.7249752 1.181563-1.1499835 1.772345-2.9139412 1.772345-5.2918731 0-2.4169145-.658576-4.6389165-1.975729-6.666006-2.518086-3.8202841-6.469545-5.7304262-11.854376-5.7304262-4.726254 0-8.668028 1.4715891-11.825321 4.4147671-3.157293 2.9431781-4.735939 6.8706641-4.735939 11.7824579 0 3.8982491 1.220303 7.4261645 3.66091 10.5837463 1.239673 1.6372646 2.973279 2.9529237 5.200817 3.9469772s4.774679 1.4910803 7.641423 1.4910803zm1.627072-18.1268583h-7.321821c0-1.1694747.619837-2.2707301 1.85951-3.3037661 1.239674-1.033036 2.489032-1.549554 3.748075-1.549554s2.227538.2728774 2.905484.8186323 1.01692 1.266931 1.01692 2.1635282c0 1.2474398-.736056 1.8711596-2.208168 1.8711596zm43.688798 17.8929633c3.738389 0 6.847258-.6042286 9.326604-1.8126858 1.355893-.7016848 2.411552-1.7639577 3.166978-3.1868186s1.133139-3.1478362 1.133139-5.1749257-.377713-3.7130822-1.133139-5.0579782c-.755426-1.3448959-1.694866-2.2902213-2.81832-2.8359762-2.401867-1.2084572-4.881213-1.9491245-7.438039-2.222002-2.634306-.3508424-3.951459-1.111001-3.951459-2.2804757 0-.8576148 1.142824-1.2864222 3.428471-1.2864222 1.472112 0 2.83769.2923687 4.096733.877106 1.259043.5847374 2.121004.8771061 2.585881.8771061.891015 0 1.762661-.6821936 2.614936-2.0465808s1.278413-2.5143706 1.278413-3.4499504-.677946-1.7152296-2.033839-2.3389495c-2.905484-1.3254047-5.733489-1.988107-8.484014-1.988107-8.406534 0-12.609801 3.0796168-12.609801 9.2388503 0 2.066072.368028 3.849521 1.104084 5.3503469s1.66581 2.6020813 2.789264 3.3037661c2.401867 1.4813347 4.823104 2.3974232 7.263711 2.7482656 2.595566.3508424 3.893349.8965973 3.893349 1.6372646 0 .9355798-1.181564 1.4033697-3.544691 1.4033697-1.317153 0-2.789265-.4775355-4.416336-1.4326065-1.627071-.9550711-2.915169-1.4326066-3.864294-1.4326066s-1.636756.3313512-2.062894.9940536c-1.472112 2.066072-2.208168 3.6058804-2.208168 4.6194251 0 1.0135448.368028 1.7542121 1.104084 2.222002 3.447842 2.1830195 7.040957 3.2745292 10.779347 3.2745292zm33.655192-.5262636c.852276 0 1.501167-.0292369 1.946675-.0877106.445507-.0584737.95881-.2241493 1.539906-.4970267 1.084715-.5457549 1.627072-2.0465808 1.627072-4.5024777 0-2.1050546-.445508-3.410968-1.336523-3.9177404-.542357-.3118599-1.055659-.4970267-1.539907-.5555005-.484247-.0584737-1.181563-.0877106-2.091949-.0877106-.910385 0-1.530221-.2338949-1.859509-.7016848-.329289-.4677899-.493933-1.2279485-.493933-2.2804757v-8.0693757l3.77713.233895c.891015 0 1.559276-.0292369 2.004784-.0877106.445507-.0584738.95881-.2241493 1.539907-.4970268 1.045974-.5457549 1.568961-2.0465808 1.568961-4.5024777 0-2.4948794-.503617-3.9957053-1.510852-4.5024777-.581097-.3118599-1.094399-.4970267-1.539906-.5555005-.445508-.0584737-1.104084-.0877106-1.97573-.0877106-.871645 0-2.159743.077965-3.864294.233895v-5.7304262c0-1.36438718-.096849-2.3584407-.290548-2.98216055-.503617-1.44235217-2.072579-2.16352825-4.706885-2.16352825-2.479346 0-3.970828.48728114-4.474445 1.46184341-.309919.50677238-.493933.97456227-.552042 1.40336967-.05811.4288074-.087165 1.09150975-.087165 1.98810704v6.02279488l-1.91762-.233895c-.929754 0-1.70455.2533862-2.324387.7601586-.348658.3118599-.619837.8283779-.813536 1.549554-.193698.7211761-.290548 1.8809052-.290548 3.4791873s.280864 2.7287744.84259 3.3914767c.561727.6627024 1.268729.9940535 2.121004.9940535s1.646441-.0584737 2.382497-.1754212v8.654113c0 4.366039 1.045974 7.465147 3.137923 9.2973241s5.152392 2.7482656 9.18133 2.7482656zm25.95566.5262636c2.556826 0 5.026487-.5944829 7.408984-1.7834489s4.406652-3.0406343 6.072462-5.555005c1.665811-2.5143706 2.498717-5.3893293 2.498717-8.6248761 0-4.6778989-1.607701-8.5274199-4.823104-11.5485629-3.215402-3.0211431-6.915052-4.5317146-11.09895-4.5317146-4.183897 0-7.902917 1.5203172-11.157059 4.5609514-3.254143 3.0406343-4.881214 6.8999009-4.881214 11.5777999 0 3.1185992.823221 5.9155929 2.469662 8.3909811s3.670595 4.3465478 6.072462 5.6134787c2.401867 1.266931 4.881213 1.9003964 7.43804 1.9003964zm-.05811-10.2913776c-1.278413 0-2.537456-.4677898-3.77713-1.4033696-1.239673-.9745623-1.85951-2.4071688-1.85951-4.2978197 0-1.8906508.600467-3.3232573 1.801401-4.2978196 1.200933-.9745623 2.498716-1.4618434 3.893349-1.4618434 1.394632 0 2.692415.4677899 3.893348 1.4033697 1.200934.9355798 1.801401 2.3584407 1.801401 4.2685827 0 1.9101421-.639207 3.3524943-1.91762 4.3270565-1.278413.9745623-2.556826 1.4618434-3.835239 1.4618434zm25.83944 9.765114c2.440607 0 3.951458-.5067724 4.532555-1.5203171.309919-.5847374.493933-1.1012554.552042-1.549554.05811-.4482987.087165-1.1207467.087165-2.0173439v-12.2794847c0-1.0525272.455192-1.9491245 1.365577-2.6897919.910385-.7406673 1.888565-1.111001 2.934539-1.111001 1.045975 0 1.888565.15593 2.527772.4677899.639206.31186 1.307468.4677899 2.004784.4677899 1.394632 0 2.459977-.7406673 3.196033-2.222002.736056-1.4813346 1.104084-2.8457218 1.104084-4.0931615s-.242124-2.1537826-.726372-2.7190287c-.484247-.5652462-1.094399-.9648167-1.830455-1.1987116-.736056-.233895-1.414002-.3995706-2.033839-.4970268-.619836-.0974562-1.384947-.1461843-2.295332-.1461843s-1.966044.3313511-3.166978.9940535c-1.200933.6627023-1.985414 1.188966-2.353442 1.5787909s-.648892.721176-.842591.9940535c0-.6627024-.213068-1.3059135-.639206-1.9296333-.581097-.8965973-2.033839-1.344896-4.358227-1.344896-2.479346 0-3.990198.5262637-4.532555 1.5787909-.271178.5457549-.435823 1.0427817-.493932 1.4910803-.05811.4482987-.087165 1.1207466-.087165 2.0173439v22.2200198c.07748 1.1304923.426138 1.9686158 1.045975 2.5143707.813535.6627023 2.150058.9940535 4.009568.9940535zm34.672112 13.7998018c.697316 0 1.278413-.1754212 1.74329-.5262636.464878-.3508424.803851-.7211761 1.01692-1.111001s.474562-.955071.784481-1.6957384l15.224737-34.2656095c0-.0389825.154959-.3703337.464878-.9940535.309918-.6237199.464877-1.2864222.464877-1.988107 0-1.4423522-1.142824-2.6703007-3.428471-3.6838454-1.239674-.5457549-2.314703-.8186323-3.225088-.8186323s-1.617386.3313511-2.121003.9940535c-.309919.3898249-.532673.7211761-.668262.9940535l-.025365.0523081c-.209072.4375586-1.217536 2.6518702-3.025393 6.6429347-1.89825 4.1906178-2.944224 6.5977866-3.137923 7.2215065-1.743291-2.8457219-3.573746-5.915593-5.491365-9.2096135-1.91762-3.2940205-2.982964-5.1067063-3.196033-5.4380575s-.552042-.6529567-1.01692-.9648167c-.464877-.3118599-1.065344-.4677899-1.8014-.4677899s-1.76266.389825-3.079813 1.1694748c-2.091949 1.2474397-3.137923 2.4948794-3.137923 3.7423191 0 .6237199.387398 1.5787909 1.162194 2.8652131l11.563827 19.5887017c-3.71902 7.9914106-5.57853 12.4549058-5.57853 13.3904856 0 1.4033697 1.142824 2.6118269 3.428472 3.6253717 1.355892.5847373 2.382497.877106 3.079813.877106z" fill="#006373"/><path d="m508.052941 45.656c2.372549 0 3.852941-.5686275 4.441177-1.7058824.352941-.6274509.558823-1.1666666.617647-1.617647.058823-.4509804.088235-1.1470588.088235-2.0882353v-.2352941c0-2.0784314-.333333-3.4509804-1-4.1176471-.901961-.8235294-2.539216-1.2352941-4.911765-1.2352941s-3.852941.5882353-4.441176 1.7647059c-.313726.5882353-.5 1.117647-.558824 1.5882353-.058823.4705882-.088235 1.1568627-.088235 2.0588235v.2352941c0 2.0784314.382353 3.4901961 1.147059 4.2352941.764706.7450981 2.333333 1.1176471 4.705882 1.1176471z" fill="#9dcafa"/></g><g transform="translate(0 2)"><path d="m18.32 75c-1.608184-.5789438-3.0790635-1.4846242-4.32-2.66l-.75-.7 1.85-.57c1.7948666-.4744398 3.5320094-1.1451513 5.18-2 .3021101-.2136959.6411491-.3696538 1-.46.0724962.5434663.0992568 1.0920579.08 1.64.0443947 1.4447516-.3010289 2.8748053-1 4.14-.46.79-.89.92-2.04.61z" fill="#c3e7e7"/><path d="m47.62 72.52c-.79-.36-1.13-1.12-1.21-2.73l-.06-1.18.3.16c1.1504838.4891836 2.350926.8513282 3.58 1.08.79.16 1.48.31 1.54.35s-.61 1.13-1.19 1.64c-.5504669.516979-1.2506929.8460852-2 .94-.3322373-.032649-.6566953-.120523-.96-.26z" fill="#c3e7e7"/><path d="m38.93 32.76c-2.9432978-.5130523-5.6682473-1.8877076-7.83-3.95-2.8793536-2.6971482-4.5362848-6.4504904-4.5891103-10.3954232s1.5030097-7.7412963 4.3091103-10.5145768c3.8889102-3.88234176 9.5657838-5.37223456 14.86-3.9 1.7800615.56595971 3.4653955 1.39514403 5 2.46 2.0664031 1.60459832 3.7020118 3.6972154 4.76 6.09.7958262 1.7573855 1.1395853 3.6858745 1 5.61.1073031 1.2482729-.0147061 2.5056448-.36 3.71-1.5540691 5.6416808-6.2316956 9.8749328-12 10.86-1.7072936.2444365-3.4399745.2545298-5.15.03z" fill="#9fcbf8"/><path d="m26.41 10.3c-.89-.26-1-1.4-.29-2.37.2836955-.47561127.7847155-.77965137 1.3375825-.81170164.5528671-.03205026 1.0856638.21205844 1.4224175.65170164.58.63.57.62.26 1-.15.19-.45.61-.67.93-.33.49-.44.58-.75.63-.4335426.0866511-.8808786.0764068-1.31-.03z" fill="#fcf0b8"/><path d="m4.59 23.1c-.39-.14-.33-.55.09-.62.25 0 .52.13.52.31-.01142798.1363638-.10127905.2535608-.23.3-.12331942.0383208-.25483578.0417817-.38.01z" fill="#d4aa00"/><path d="m4.38 26.69c-.29660846-.115856-.51221583-.3768544-.57-.69-.03089552-.2557369-.03089552-.5142631 0-.77.05239899-.3434625.14642424-.679267.28-1v-.11c-.12082121-.1071896-.24769662-.2073544-.38-.3 0 0-.05 0-.17.08-.48353154.392224-1.05194659.6661589-1.66.8-.24062778.0513167-.48937222.0513167-.73 0-.28068157-.0387451-.5125425-.2385099-.59237556-.5103738-.07983307-.271864.00720665-.5652742.22237556-.7496262.22282403-.2015818.4956341-.3397134.79-.4.47171583-.0873368.95413961-.1008312 1.43-.04h.53l-.44-.35c-.31996703-.2360255-.62089319-.4968281-.9-.78-.45462755-.3921614-.68659636-.9833077-.62-1.58.02186526-.0812065.06706332-.1542187.13-.21.05684046-.0616666.12945812-.1066204.21-.13.45-.14 1.12.15 1.82.77.1.09.32.31.49.49s.31.33.31.32 0-.21.06-.47c.0215935-.3376426.07516679-.6724757.16-1 .08658328-.389654.26484809-.75304.52-1.06.12514595-.1212238.27071404-.2193976.43-.29.17777778-.04.36222222-.04.54 0 .27301358.0666572.52010889.2128263.71.42.40730749.4170385.51112259 1.0439221.26 1.57-.1625775.3208536-.39907417.5984801-.69.81l-.59.39c-.1555979.0876909-.30586139.1845274-.45.29h.8c.47224423-.018424.94508296.0151107 1.41.1 1 .18 1.64.61 1.76 1.19.05063439.3405852-.068937.684353-.32.92-.54485782.493522-1.37514218.493522-1.92 0-.31300996-.2358377-.58354795-.5232843-.8-.85-.03183935-.0502655-.0686946-.0971722-.11-.14h-.12l-.24.1-.12.05v.21c.0671587.3288113.09069463.665039.07 1 .03109307.4229968-.04815848.8468203-.23 1.23-.15885747.3401264-.44678891.6028639-.8.73-.15808499.0350087-.32191501.0350087-.48 0zm.62-3.06c.48545304-.0672285.82520543-.5142711.76-1-.0965786-.3171938-.35636735-.5578804-.68-.63-.10570468-.0202595-.21429532-.0202595-.32 0-.11187907-.0256762-.22812093-.0256762-.34 0-.28962419.0875269-.51769818.311862-.61.6-.06585982.2763392.00573128.5674754.19223608.7817575.18650481.2142821.46498136.3253513.74776392.2982425z" fill="#f14d9c"/><path d="m13.85 77.8c-3-.27-5.15-1.08-6.61-2.52-.8053073-.8021926-1.44718624-1.7531243-1.89-2.8-1.47788057-3.4183686-2.36059113-7.0641999-2.61-10.78-.19935304-3.4304395-.19935304-6.8695605 0-10.3.4703086-6.3059325 2.14377541-12.4634757 4.93-18.14 2.25-4.59 4.75-6.41 9.48-6.89.53-.06.54-.05.54.18s.63 4 .92 5.33l.26 1.17-.6.58c-1.51 1.43-4.92 5.14-6.22 6.76s-1.68 2.48-3.15 6.9c-1.57 4.71-2.19 7.71-2.2 10.49.05269862 4.680641 1.7079994 9.2018357 4.69 12.81 1.0662495 1.2525905 2.255545 2.3949841 3.55 3.41.8553378.5908542 1.7703549 1.0902591 2.73 1.49.2 0 .22.1.17.42s-.08.73-.11 1.19l-.06.83h-1.48c-.81-.04-1.87-.08-2.34-.13z" fill="#fcf0b8"/><path d="m20 96.35c-.59-.06-1.51-.22-2.06-.34l-1-.21.06-2.23c.19-4.9.49-9.14 1-14.75l.29-3h.73c1.15 0 1.74-.51 2.32-2 .8869994-2.3977064.8298066-5.0428731-.16-7.4-.3218382-.6687962-.7176436-1.2994014-1.18-1.88-1.91-2.16-2.39-3.21-2.4-5.33 0-1.71.09-2 1.67-5.35 1.73-3.65 1.92-4.28 1.93-6.75 0-2.25-.07-2.74-.43-2.65s-.23.28-.23 2.29c0 2.75-.12 3.18-1.81 6.71-.65 1.36-1.31 2.86-1.47 3.34-.4395636 1.3347795-.4915758 2.7668498-.15 4.13.3525023 1.3873929 1.0708092 2.6547903 2.08 3.67.7511509.7390109 1.343276 1.6237957 1.74 2.6l.19.54-.5.33c-1.9685071 1.1466893-4.0896001 2.0085938-6.3 2.56l-1.53.47-.64-.7c-1.6685347-1.9751915-2.94775746-4.2486113-3.77-6.7-.71936159-1.9147514-1.03596029-3.9573237-.93-6-.00625833-2.6561045.44013032-5.2938556 1.32-7.8.63-2.16 2.19-6.62 2.62-7.46 1.9813988-2.718131 4.1928797-5.2608321 6.61-7.6 1.69-1.67 1.84-1.73 3.57-1.37 1.35.28 1.41.27 1.41-.1s-.09-.33-1.32-.55c-.5834802-.1124694-1.1758239-.1727077-1.77-.18h-.45l-.23-1.07c-.23-1.06-.76-4.29-1-6.21-.3644931-2.4359723-.5350288-4.8970363-.51-7.36 0-4.72.28-6.13 1.83-9.22 1.63-3.29 2.89-4.53 5.43-5.4 1.57-.54 7.34-2 8.79-2.22 2.2451018-.30222245 4.5241961-.2414466 6.75.18 1.2188632.3283185 2.3939286.801702 3.5 1.41l.53.33-.53-.08c-.911183-.07675628-1.8258909-.10346308-2.74-.08-1.151298-.0632992-2.3053895.05480958-3.42.35-2.7442715.65667251-5.2619074 2.03809137-7.29 4l-.69.66-.22-.33c-.4211325-.52594836-.9935929-.90991571-1.64-1.1-1.145502-.13858125-2.2396475.51543805-2.66 1.59-.3728637.60983274-.3919253 1.37229753-.05 2 .3495717.6048705 1.0130275.9579376 1.71.91h.68l-.25.51c-.14.27-.42.95-.62 1.5-1.989702 5.5035641-.6746827 11.6597166 3.39 15.87 3.5852873 3.6739209 8.7294913 5.3812002 13.8 4.58l.6-.08-1.07 1c-.4992507.4467314-.9485475.9463226-1.34 1.49l-.26.5-.9-.05c-.3392241.0040026-.6768795-.0466457-1-.15-.06 0 0-.41.19-.79.1099332-.2274861.1970264-.4653174.26-.71-.1022823-.050838-.2095103-.0910485-.32-.12-.25-.07-.32 0-.62.76l-.34.84h-.51c-2.6605964-.1977073-5.2886758-.7078836-7.83-1.52-.3691601-.1718928-.764743-.2800864-1.17-.32-1 .63 3.09 1.87 7.86 2.37 1.42.16 1.51.18 1.43.44s-.15.76-.24 1.37l-.16 1.1-1.27-.08c-.7 0-1.84-.16-2.53-.27-.4235603-.0736606-.8508852-.1237377-1.28-.15-.050838.1022823-.0910485.2095103-.12.32-.08.25 0 .29.89.44.53.09 1.69.2 2.59.24l1.61.07.09 1.69c.2065338 2.8627667.6378633 5.7048601 1.29 8.5 1.07 5.47 1.25 7 1.16 10 .0445213 2.5221043-.525193 5.0171784-1.66 7.27-.1999473.3371053-.329235.711359-.38 1.1.41 1.08 2.1-2.86 2.56-6 .1759067-1.2988455.2228021-2.6119149.14-3.92-.08-2.73-.21-3.63-1.22-8.75-.6309295-2.6918564-1.0389767-5.4311246-1.22-8.19l-.09-1.7h1.07c1.51 0 1.93-.1 1.88-.45s-.11-.28-1.31-.24c-.465714.0045273-.9304007.0446441-1.39.12-.0821024-.7260975-.0140261-1.4613218.2-2.16l.15-.51.6.08c.351375.0482232.7053674.0749397 1.06.08.39 0 .47.07.65.48 1.0882468 1.6890132 2.3194302 3.2815223 3.68 4.76 2.6641641 2.9406739 4.6659368 6.4190524 5.87 10.2 2.27 6.56 2.6 12.26.93 16.45l-.27.69-1.76-.38c-1.2594412-.202554-2.4845399-.5795074-3.64-1.12l-.29-.18.37-1.12c1.88-5.86 1.06-12.97-2.66-22.29-1.2-3-1.64-3.94-1.87-3.94-.1144914.0024463-.2183085.0678126-.27.17.210942.8251462.4988716 1.6286706.86 2.4 2.51 6 3.77 10.57 4.15 15.08.2751233 2.8612466-.0449226 5.7484691-.94 8.48-.4500904 1.3716728-.7124716 2.7979502-.78 4.24-.31 3-.54 6-1 11.87l-.24 4.13.28.31c.5881823.4296277 1.2102188.8108759 1.86 1.14 3.3 1.78 4.43 2.83 4.43 4.13 0 .51-.06.66-.52 1.09-.9.86-1.73 1.09-4.42 1.21-5.32.24-10.08.12-10.48-.28-.07-.08-.05-2.6 0-6.36s.14-7.46.09-9.16c-.09-2.73-.08-2.92.14-2.92 1.2160243-.2546342 2.3999651-.6436912 3.53-1.16 1.5975036-.7671553 3.0652303-1.7793806 4.35-3 1-.94 1-1 .82-1.24s-.27-.2-1.24.73c-2.0263876 1.9196874-4.5183921 3.2777092-7.23 3.94-1.2644133.334376-2.5756515.4560372-3.88.36-2.2655528.0734588-4.5255986-.2653787-6.67-1-1.39-.4-1.6-.39-1.61.09 1.3827413.5742758 2.8248813.9935025 4.3 1.25.4200122.0700389.8344221.1702993 1.24.3-.0775172.5035068-.2117024.9966375-.4 1.47-.46 1.35-2.87 9.87-2.87 10.13.370145.3835963.7866942.719523 1.24 1 2.59 1.77 4.4 4 4.18 5.12-.17.89-1.27 1.6-3.15 2-2.7297483.294888-5.479542.3584477-8.22.19z" fill="#0f6371"/><path d="m31.35 9.37c1.1273183-1.28011262 2.4839384-2.33827625 4-3.12 2.0928742-.99859866 4.3719486-1.54707544 6.69-1.61h.7l-.17.18c-.6404058.53382714-1.3460591.98410115-2.1 1.34-1.4120519.64246723-2.8652567 1.19034213-4.35 1.64-1.4670279.44196989-2.9034513.97979355-4.3 1.61-.38.18-.71.32-.72.32.0670555-.13052221.1511214-.25157711.25-.36z" fill="#d6eaff"/><path d="m48.87 29.42c.7297905-1.3825324 1.5446906-2.7184342 2.44-4 .8964438-1.2396579 1.6955013-2.5469025 2.39-3.91.6349533-1.170734 1.0740869-2.4374654 1.3-3.75.16-1.16.16-1.16.26-.39.42 3.36-1.31 7.2-4.84 10.73-.98.9-1.55 1.44-1.55 1.32z" fill="#d6eaff"/><g fill="#000"><path d="m46 71.27c.1405048.71909.5756972 1.3464924 1.2 1.73.4252782.2137125.8940554.3266296 1.37.33.6060986-.0092237 1.1978668-.185716 1.71-.51 2.3-1.42 3.86-5.36 3.89-9.81-.1942113-5.5085764-1.6190472-10.9038183-4.17-15.79-1.1142386-2.0562259-2.4999961-3.9532338-4.12-5.64-.4380338-.4122089-.8121481-.8874352-1.11-1.41-.3-.43-.65-.84-1-1.24-.5997075-.5443601-1.0505967-1.2327406-1.31-2-.06-.9 1.58-2.23 3.16-3.52l.57-.46c6.4950739-1.9431626 10.9590977-7.9006052 11-14.68-.0261699-6.7320621-4.419367-12.66793957-10.85-14.66-4.14-3.35-9.23-4.15-15.58-2.45l-2.42.63c-6 1.52-7.2 1.84-10.15 8.4-1.53 3.41-1.34 9.79-.58 15.59-2.3702921.0112019-4.6791142.7551945-6.61 2.13-.3-.19-.61-.36-.93-.54-1.20106736-.5337479-2.2370409-1.379793-3-2.45.54480314.3940512 1.25115011.4879804 1.88.25.74096333-.2766061 1.1814336-1.040088 1.05-1.82-.09-.47-.55-1.52-2.83-1.7.66310335-.5335612.91588785-1.4283381.63-2.23-.26778348-.821132-1.05814191-1.3562705-1.92-1.3-.43.06-1.39.38-1.71 2.23-.58824207-.6819413-1.47496158-1.0298945-2.37-.93-.39322739.1146325-.68522175.4455594-.75.85-.04713692.8444067.32744466 1.6572487 1 2.17-1.45.13-1.83.9-1.92 1.16-.18535448.5125038-.00521489 1.0856752.44 1.4.89600679.4734311 1.98731954.3713659 2.78-.26-.2939513.7466712-.13892286 1.5954519.4 2.19.2383343.2152437.54887091.3330335.87.33.26412931-.0027431.52285079-.0751851.75-.21.56062046-.3707665.92712224-.9718294 1-1.64.83860675 1.1445314 1.95790213 2.0537436 3.25 2.64l.68.39c-2.06 1.92-3.3 4.77-4.83 8.38-4.08 9.94-5 27.77-.24 36.75 2.55 4.76 7.64 4.92 12.25 4.93-.62 6-.9 10.46-1.16 17.42v.16l.14.08c.93.55 4 1 7.14 1 2.78 0 5.61-.32 7-1.14.791824-.3614946 1.3189749-1.1310581 1.37-2 0-2.51-4.47-5.44-5.43-6l2.09-7.5c.44-1.58 1-3.18 1.3-4 .6642012.0738807 1.3317301.1139324 2 .12 1.1014259-.0037976 2.1998922-.114314 3.28-.33h-.44c.1936668 3.7708483.1936668 7.5491517 0 11.32-.07 2.19-.14 4.45-.14 7.28v.18l.17.07c1.6300599.4296698 3.3160859.6083886 5 .53 1.59 0 3.27-.07 4.78-.14 1.22-.06 2.38-.12 3.28-.12.11 0 2.53-.47 3.31-1.89.2959961-.5881942.2959961-1.2818058 0-1.87-.69-1.66-3-2.85-4.64-3.73-.6467547-.2722035-1.247259-.6433016-1.78-1.1.07-1 .15-2.18.25-3.55.29-3.54.6-8.09 1-12.02zm-41.93-45.27c-.02659314-.2191964-.02659314-.4408036 0-.66.05195455-.3154325.13916771-.6240329.26-.92.03773997-.0636696.05840658-.1360028.06-.21 0-.14-.17-.32-.5-.53-.04880582-.0286878-.10354382-.0457934-.16-.05-.11714977.014098-.22624504.066886-.31.15-.44651341.3666722-.97472195.6204867-1.54.74-.19734842.0460572-.40265158.0460572-.6 0-.20227317-.0380238-.36738771-.1839389-.43-.38-.05566046-.181665.00353211-.3789735.15-.5.19212423-.1702642.42736483-.284425.68-.33.43256048-.1000657.87928234-.1237555 1.32-.07.2160272.0235415.4339728.0235415.65 0 .22124832.41275.65169098.670247 1.12.67h.27-.04c.20019495-.0396936.38845887-.1252681.55-.25v.22c.05923866.2994977.08273621.6049658.07.91.01393206.3682285-.06881289.7336853-.24 1.06-.11205794.28407-.34777193.5013688-.64.59-.10182104.0250017-.20817896.0250017-.31 0l-.09.25.09-.25c-.18025489-.0848193-.31255431-.2465186-.36-.44zm2.23-2.85s-.08 0-.27.09l-.17.07c.12274233-.2113667.16866769-.4586571.13-.7.004469-.0599168.004469-.1200832 0-.18h.34c.45897799-.0185263.91857714.0150211 1.37.1.88.16 1.44.52 1.54 1 .02921419.2485803-.05959536.496507-.24.67-.45044681.4106735-1.13955319.4106735-1.59 0-.28718795-.2151833-.53428627-.4792062-.73-.78-.18-.2-.23-.27-.38-.27zm-1.71-.34c.03625722-.0386488.08700799-.0603991.14-.06.0626084.0052102.12367408.0221729.18.05-.01750779.0235999-.04199757.0410926-.07.05-.06245965.0148772-.12754035.0148772-.19 0zm2.41-2.26c-.14430762.2815874-.35336634.5249181-.61.71l-.57.37-.33.21c-.09440833-.0552398-.19513605-.0988885-.3-.13-.12616571-.0389318-.2580936-.0558456-.39-.05.0523886-.1889056.07929346-.3839659.08-.58.01337753-.319464.05351814-.6372439.12-.95.07241199-.3498346.23046407-.6762465.46-.95.10176493-.0796837.21689101-.1406328.34-.18.12919931-.0204049.26080069-.0204049.39 0 .21662234.0544113.41179159.1729069.56.34.31598336.3180298.41407326.7927849.25 1.21zm-2.67 1.17c-.36917157.1177947-.65697845.4093393-.77.78-.00469785.0498897-.00469785.1001103 0 .15l-.28-.22c-.30972557-.2261614-.60067211-.4769773-.87-.75-.38056443-.3298606-.58727846-.8171151-.56-1.32.01234257-.0398134.0368161-.0747756.07-.1 0-.05 0-.05.1-.06.05610201-.0113132.11389799-.0113132.17 0 .53262798.0855406 1.02164995.3458833 1.39.74.1.08.31.3.47.47s.25.26.33.33zm31.41 57.37c0-1.3-.08-2.35 0-2.65 1.2016517-.2717905 2.3738835-.6603016 3.5-1.16 1.6166204-.7706314 3.1069225-1.7821487 4.42-3 1-.94 1.23-1.17.83-1.6-.0849267-.1226834-.2211259-.1999857-.37-.21-.26 0-.49.22-1.22.92-1.9979874 1.8817458-4.4464431 3.2178932-7.11 3.88-1.2463275.3207497-2.5361367.438926-3.82.35h-.05c-2.222351.0619122-4.4376929-.276825-6.54-1-1.1-.32-1.48-.38-1.74-.19-.154207.1310739-.2360544.3282516-.22.53 0 .59 4.48 1.5 4.52 1.51l1 .22c-.06.23-.18.66-.36 1.2-.31.91-2.89 9.85-2.89 10.22 0 .12 0 .27 1.36 1.19 2.73 1.86 4.24 4 4.07 4.85s-1.19 1.41-2.95 1.8c-2.6999695.2897911-5.4194406.3533458-8.13.19-.58-.06-1.49-.21-2-.33l-.77-.18.08-2c.2-4.88.5-9.15 1-14.74l.27-2.8h.49c1.27 0 1.95-.57 2.56-2.19.9118468-2.4688997.8546782-5.1915522-.16-7.62-.3682795-.6654485-.8075041-1.2890803-1.31-1.86-1.86-2.11-2.32-3.12-2.33-5.16 0-1.67.07-1.91 1.64-5.24 1.76-3.69 1.94-4.34 2-6.86 0-2.08-.05-2.61-.34-2.83-.1175832-.0957187-.2754626-.125791-.42-.08-.43.12-.43.44-.43 2.55 0 2.72-.1 3.09-1.78 6.6-.65 1.36-1.32 2.88-1.48 3.37-.4799647 1.3583329-.5666227 2.8245875-.25 4.23.3784519 1.4333295 1.1347773 2.7387679 2.19 3.78.7306271.7071018 1.3061546 1.5584738 1.69 2.5l.12.35-.33.22c-1.9434084 1.1329259-4.0375619 1.9847279-6.22 2.53l-1.38.42-.53-.58c-1.6456049-1.9437203-2.90483092-4.1838529-3.71-6.6-.70492719-1.8766246-1.01802734-3.877743-.92-5.88-.01522207-2.6339092.41761564-5.2512247 1.28-7.74.62-2.15 2.18-6.59 2.6-7.42 1.9643964-2.7166481 4.1663956-5.2532976 6.58-7.58 1.66-1.65 1.72-1.63 3.32-1.3 1 .2 1.35.28 1.57.1.1207089-.1208997.1796265-.290288.16-.46 0-.54-.32-.59-1.53-.81-.6069109-.1148822-1.2224199-.1784402-1.84-.19h-.22l-.18-.83c-.22-1.05-.76-4.29-1-6.2-.3420867-2.4211101-.4958812-4.8651054-.46-7.31 0-4.68.27-6.05 1.79-9.1 1.62-3.24 2.8-4.42 5.29-5.27 1.53-.52 7.33-2 8.74-2.21 2.2086311-.29041202 4.4491232-.23305003 6.64.17.9945259.27878977 1.9617992.6469561 2.89 1.1-.55 0-1.34 0-2.11 0-1.1823188-.08073939-2.3699919.02385682-3.52.31-2.788276.66525694-5.3450248 2.07146877-7.4 4.07l-.46.44-.05-.07c-.4622468-.58025852-1.0955592-1.00013409-1.81-1.2-1.2809216-.19267728-2.5251662.52483713-3 1.73-.4049881.70961652-.4049881 1.58038348 0 2.29.4207181.6882198 1.1969932 1.0763574 2 1h.25l-.06.12c-.14.28-.42 1-.62 1.53-2.0025657 5.5796714-.6739636 11.8120934 3.43 16.09 3.5840756 3.6774642 8.7042074 5.4299676 13.79 4.72l-.47.44c-.5243192.4659953-.9909721.9930781-1.39 1.57l-.19.35h-.72c-.33 0-.59-.06-.74-.08.0434404-.1676262.1002903-.3314877.17-.49.32-.78.34-.89.18-1-.1257365-.0779488-.2647014-.132179-.41-.16-.51-.16-.68.24-.94.91l-.27.66h-.32c-2.6342354-.1866676-5.2363509-.6903029-7.75-1.5-1.16-.45-1.33-.34-1.41-.29-.2033716.096594-.3147477.3193463-.27.54.24 1 5 2 8.24 2.32.46 0 1 .1 1.19.15-.06.25-.16.86-.23 1.35l-.12.86-1-.06c-.7 0-1.82-.16-2.51-.27-1.4-.21-1.42-.19-1.52-.07s-.07.08-.17.42c-.0642735.1291098-.0642735.2808902 0 .41.12.2.37.25 1.07.37.54.09 1.72.2 2.62.24l1.38.07.08 1.44c.2049838 2.8761351.6363192 5.7316423 1.29 8.54 1.06 5.43 1.24 7 1.16 9.89.0399812 2.4829799-.5191436 4.9390125-1.63 7.16-.19.38-.5 1.06-.4 1.32.0531194.2181903.2560172.3661366.48.35.91-.1 2.24-4 2.59-6.39.1872195-1.3246453.2374848-2.6650533.15-4-.09-2.75-.22-3.66-1.24-8.8-.619278-2.6768158-1.0238963-5.3987935-1.21-8.14l-.07-1.43h.79c1.34 0 1.81-.08 2-.33.0987081-.1159462.1392005-.2705539.11-.42-.07-.51-.39-.5-1.58-.46-.52 0-.91 0-1.17.07.0189796-.5973133.1028049-1.1907962.25-1.77l.08-.3.38.05c.361227.0515894.7252034.0816425 1.09.09.27 0 .27 0 .4.31 1.1086209 1.7096738 2.3561714 3.3251346 3.73 4.83 2.6459811 2.9149691 4.6312334 6.3669885 5.82 10.12 2.26 6.5 2.58 12.12.93 16.26l-.19.48-1.54-.33c-1.2151218-.2134689-2.3958116-.5902132-3.51-1.12l-.11-.07.3-.93c2-5.87 1.12-13-2.62-22.4-1.47-3.71-1.73-4.11-2.12-4.11-.2229564-.0011679-.4261254.1277663-.52.33 0 .09-.1.27.87 2.6 2.52 6 3.76 10.51 4.14 15 .2652596 2.8282441-.0547184 5.6808142-.94 8.38-.4716451 1.3960312-.7541574 2.8489517-.84 4.32-.3 3-.53 5.93-.95 11.87l-.29 4.13.07.2.29.31c.6021609.4575772 1.2448264.8592431 1.92 1.2 3.17 1.7 4.3 2.72 4.3 3.89 0 .42 0 .5-.44.9-.85.8-1.64 1-4.25 1.14-5.81.26-9.63.06-10.23-.18 0-.46 0-2.5.08-6.2s.13-7.47.08-9.17zm-32.69-27.66c.45889714-6.2739246 2.10827201-12.4030831 4.86-18.06 2.21-4.5 4.63-6.27 9.26-6.74h.26c0 .62.66 4.1.92 5.33l.23 1-.5.48c-1.5 1.43-4.94 5.17-6.23 6.79s-1.73 2.53-3.21 7c-1.58 4.77-2.2 7.68-2.21 10.55.04644895 4.7496892 1.72339121 9.3392154 4.75 13 1.0796116 1.2698609 2.2895789 2.4228491 3.61 3.44.8765459.6161326 1.81903 1.1326541 2.81 1.54v.12c0 .2-.08.75-.12 1.21v.58h-1.29c-.8 0-1.84 0-2.32-.09-3-.27-5-1-6.45-2.45-.77973734-.7801388-1.40115825-1.7037808-1.83-2.72-1.47410095-3.4045635-2.35026378-7.0377638-2.59-10.74-.1878632-3.4112685-.17116662-6.8307287.05-10.24zm15.34 23.31c-1.5785411-.558088-3.022827-1.4403287-4.24-2.59l-.42-.39 1.42-.44c1.8107768-.4748035 3.5644514-1.1454248 5.23-2 .27-.16.5-.28.65-.35v1.3c.0599763 1.3907333-.2542817 2.7720872-.91 4-.36.63-.64.73-1.73.47zm8.1-64.69c-.2555154-.0662079-.4593111-.25868166-.54-.51-.1079297-.51618558.0327778-1.05309562.38-1.45.261948-.40205747.6924181-.66328293 1.17-.71.4734927.00598941.9186344.22672084 1.21.6l.38.42c-.0438743.07417917-.09406.14443913-.15.21-.16.2-.47.62-.69 1s-.38.49-.57.52c-.3979356.0557796-.8031111.028541-1.19-.08zm12.51 22.45c-2.892965-.5062007-5.5718162-1.8560633-7.7-3.88-2.8319996-2.6437658-4.4645485-6.327301-4.5211558-10.2011253-.0566073-3.8738244 1.4676143-7.6034887 4.2211558-10.3288747 3.8226437-3.81871757 9.4111911-5.27227541 14.61-3.8 1.7452949.55219889 3.3972377 1.36468503 4.9 2.41 2.0259209 1.58599944 3.6298598 3.6467347 4.67 6 .7957954 1.7219577 1.139944 3.6182166 1 5.51.111081 1.2245423-.0076225 2.4590595-.35 3.64-1.5068941 5.5324376-6.0873523 9.6876232-11.74 10.65-1.6889873.2282927-3.4010127.2282927-5.09 0zm11.17 37.61c.59.11 1 .22 1.28.27-.2787502.4605696-.614762.8839445-1 1.26-.5032381.4695663-1.1385443.7732566-1.82.87-.2979994-.0317184-.5886391-.1128271-.86-.24-.57-.25-1-.78-1-2.49v-.72c1.0968125.4588481 2.2354518.8104867 3.4 1.05zm-5.5-36.67-.08-.16.41-.08zm-.09-30.28.05-.16.31.21z"/><path d="m42 4.47c-2.3232065.0654014-4.606389.62086221-6.7 1.63-1.546862.78700186-2.931132 1.85913257-4.08 3.16-.28.34-.31.4-.26.5l.16.11s.06 0 .79-.35c1.3955978-.6213862 2.8283403-1.15574239 4.29-1.6 1.4902104-.44712854 2.9471365-.99848821 4.36-1.65.7761046-.36153969 1.5021384-.82203338 2.16-1.37l.17-.18-.14-.3zm-1.59 1.53c-1.4028167.64541516-2.8498088 1.19012583-4.33 1.63-1.4708355.44431618-2.9106492.98549906-4.31 1.62h-.06c1.0760719-1.1471342 2.3411167-2.10099154 3.74-2.82 2.0678856-.99643058 4.3251403-1.53858087 6.62-1.59h.23c-.5904799.4476453-1.2235221.83617911-1.89 1.16z"/><path d="m55.39 17.35c-.07-.58-.09-.69-.27-.69s-.19 0-.34 1.07c-.2008004 1.3073527-.6199762 2.5716412-1.24 3.74-.6890443 1.3576602-1.4848824 2.6584206-2.38 3.89-.9018678 1.3020043-1.7233964 2.6578603-2.46 4.06l.11.18h.07c.14 0 .42-.19 1.62-1.4 3.58-3.56 5.32-7.42 4.89-10.85zm-5.14 10.65-.87.85c.38-.66 1.09-1.79 2.07-3.27.901905-1.2469405 1.7075666-2.5607372 2.41-3.93.5965069-1.1465446 1.0146484-2.3773643 1.24-3.65.15 3.17-1.55 6.68-4.85 10z"/></g></g></g></svg>