<?xml version="1.0" encoding="UTF-8"?>
<svg width="20px" height="20px" viewBox="0 0 20 20" version="1.1" xmlns="http://www.w3.org/2000/svg" xmlns:xlink="http://www.w3.org/1999/xlink">
    <title>folder [#1791] copy</title>
    <g id="Initial-design" stroke="none" stroke-width="1" fill="none" fill-rule="evenodd">
        <path d="M18,17 C18,17.552 17.552,18 17,18 L3,18 C2.448,18 2,17.552 2,17 L2,3 C2,2.448 2.448,2 3,2 L7,2 C7.552,2 8,2.448 8,3 L8,4 C8,5.105 8.895,6 10,6 L17,6 C17.552,6 18,6.448 18,7 L18,17 Z M18,4 L11,4 C10.448,4 10,3.552 10,3 L10,2 C10,0.895 9.105,0 8,0 L2,0 C0.895,0 0,0.895 0,2 L0,18 C0,19.105 0.895,20 2,20 L18,20 C19.105,20 20,19.105 20,18 L20,6 C20,4.895 19.105,4 18,4 L18,4 Z" id="folder-[#1791]-copy" fill="#C988C5"></path>
    </g>
</svg>