<?xml version="1.0" encoding="UTF-8"?>
<svg width="20px" height="20px" viewBox="0 0 20 20" version="1.1" xmlns="http://www.w3.org/2000/svg" xmlns:xlink="http://www.w3.org/1999/xlink">
    <title>globe_network [#1294] copy</title>
    <g id="Initial-design" stroke="none" stroke-width="1" fill="none" fill-rule="evenodd">
        <path d="M12.311,17.6642706 C13.577,15.6115647 14.313,13.3286675 14.507,11.0027346 L17.93,11.0027346 C17.533,14.1673645 15.289,16.7625212 12.311,17.6642706 M10.005,17.5051384 C8.565,15.556519 7.719,13.3076501 7.495,11.0027346 L12.506,11.0027346 C12.285,13.3066492 11.442,15.5555181 10.005,17.5051384 M2.069,11.0027346 L5.493,11.0027346 C5.689,13.3296684 6.429,15.6145672 7.699,17.6672731 C4.716,16.7685262 2.467,14.1713679 2.069,11.0027346 M7.288,2.47865074 C6.176,4.51234082 5.574,6.74519641 5.467,9.00107113 L2.069,9.00107113 C2.448,5.98056097 4.512,3.48448663 7.288,2.47865074 M9.967,1.99624985 C9.976,1.98423987 9.985,1.97222989 9.994,1.96021991 C10.003,1.97222989 10.011,1.98423987 10.02,1.99624985 C11.555,4.08698733 12.393,6.52501343 12.532,9.00107113 L7.467,9.00107113 C7.603,6.52601426 8.437,4.088989 9.967,1.99624985 M17.93,9.00107113 L14.532,9.00107113 C14.422,6.74319475 13.816,4.50933832 12.699,2.47364658 C15.482,3.47748081 17.551,5.97555681 17.93,9.00107113 M10.855,0.0366213184 C4.942,-0.465796211 0,4.19807966 0,10.0019029 C0,15.4384208 4.335,19.8420804 9.71,19.9952077 C15.387,20.1593441 20,15.5945506 20,10.0019029 C20,4.8396128 16.068,0.481991439 10.855,0.0366213184" id="globe_network-[#1294]-copy" fill="#C988C5"></path>
    </g>
</svg>