<svg viewBox="0 0 60 100" xmlns="http://www.w3.org/2000/svg"><path d="m19.32 77a12.38 12.38 0 0 1 -4.32-2.66l-.75-.7 1.85-.57a25.28 25.28 0 0 0 5.18-2 3 3 0 0 1 1-.46 9.8 9.8 0 0 1 .08 1.64 8.05 8.05 0 0 1 -1 4.14c-.46.79-.89.92-2.04.61z" fill="#c3e7e7"/><path d="m48.62 74.52c-.79-.36-1.13-1.12-1.21-2.73l-.06-1.18.3.16a17.18 17.18 0 0 0 3.58 1.08c.79.16 1.48.31 1.54.35s-.61 1.13-1.19 1.64a3.57 3.57 0 0 1 -2 .94 3 3 0 0 1 -.96-.26z" fill="#c3e7e7"/><path d="m39.93 34.76a15.1 15.1 0 0 1 -7.83-3.95 14.51 14.51 0 0 1 -.28-20.91 15.25 15.25 0 0 1 14.86-3.9 18.72 18.72 0 0 1 5 2.46 15.8 15.8 0 0 1 4.76 6.09 11.57 11.57 0 0 1 1 5.61 10.27 10.27 0 0 1 -.36 3.71 15.08 15.08 0 0 1 -12 10.86 18.94 18.94 0 0 1 -5.15.03z" fill="#9fcbf8"/><path d="m27.41 12.3c-.89-.26-1-1.4-.29-2.37a1.67 1.67 0 0 1 2.76-.16c.58.63.57.62.26 1-.15.19-.45.61-.67.93-.33.49-.44.58-.75.63a3 3 0 0 1 -1.31-.03z" fill="#fcf0b8"/><path d="m5.59 25.1c-.39-.14-.33-.55.09-.62.25 0 .52.13.52.31a.35.35 0 0 1 -.23.3.7.7 0 0 1 -.38.01z" fill="#d4aa00"/><path d="m5.38 28.69a.92.92 0 0 1 -.57-.69 3.21 3.21 0 0 1 0-.77 4.28 4.28 0 0 1 .28-1v-.11a4.22 4.22 0 0 0 -.38-.3s-.05 0-.17.08a4 4 0 0 1 -1.66.8 1.75 1.75 0 0 1 -.73 0 .72.72 0 0 1 -.37-1.26 1.68 1.68 0 0 1 .79-.4 4.63 4.63 0 0 1 1.43-.04h.53l-.44-.35a7.59 7.59 0 0 1 -.9-.78 1.82 1.82 0 0 1 -.62-1.58.43.43 0 0 1 .13-.21.46.46 0 0 1 .21-.13c.45-.14 1.12.15 1.82.77.1.09.32.31.49.49s.31.33.31.32 0-.21.06-.47a5.35 5.35 0 0 1 .16-1 2.51 2.51 0 0 1 .52-1.06 1.48 1.48 0 0 1 .43-.29 1.23 1.23 0 0 1 .54 0 1.42 1.42 0 0 1 .71.42 1.39 1.39 0 0 1 .26 1.57 2.27 2.27 0 0 1 -.69.81l-.59.39a4.52 4.52 0 0 0 -.45.29s.36 0 .8 0a6.45 6.45 0 0 1 1.41.1c1 .18 1.64.61 1.76 1.19a1.05 1.05 0 0 1 -.32.92 1.43 1.43 0 0 1 -1.92 0 3.45 3.45 0 0 1 -.8-.85.88.88 0 0 0 -.11-.14h-.12l-.24.1-.12.05v.21a3.82 3.82 0 0 1 .07 1 2.45 2.45 0 0 1 -.23 1.23 1.41 1.41 0 0 1 -.8.73 1.11 1.11 0 0 1 -.48 0zm.62-3.06a.89.89 0 0 0 .76-1 .92.92 0 0 0 -.68-.63.85.85 0 0 0 -.32 0 .76.76 0 0 0 -.34 0 .92.92 0 0 0 -.61.6.88.88 0 0 0 .94 1.08z" fill="#f14d9c"/><path d="m14.85 79.8c-3-.27-5.15-1.08-6.61-2.52a8.78 8.78 0 0 1 -1.89-2.8 32.68 32.68 0 0 1 -2.61-10.78 88.77 88.77 0 0 1 0-10.3 49.53 49.53 0 0 1 4.93-18.14c2.25-4.59 4.75-6.41 9.48-6.89.53-.06.54-.05.54.18s.63 4 .92 5.33l.26 1.17-.6.58c-1.51 1.43-4.92 5.14-6.22 6.76s-1.68 2.48-3.15 6.9c-1.57 4.71-2.19 7.71-2.2 10.49a20.47 20.47 0 0 0 4.69 12.81 24.58 24.58 0 0 0 3.55 3.41 14.85 14.85 0 0 0 2.73 1.49c.2 0 .22.1.17.42s-.08.73-.11 1.19l-.06.83h-1.48c-.81-.04-1.87-.08-2.34-.13z" fill="#fcf0b8"/><path d="m21 98.35c-.59-.06-1.51-.22-2.06-.34l-1-.21.06-2.23c.19-4.9.49-9.14 1-14.75l.29-3h.73c1.15 0 1.74-.51 2.32-2a10.08 10.08 0 0 0 -.16-7.4 9.93 9.93 0 0 0 -1.18-1.88c-1.91-2.16-2.39-3.21-2.4-5.33 0-1.71.09-2 1.67-5.35 1.73-3.65 1.92-4.28 1.93-6.75 0-2.25-.07-2.74-.43-2.65s-.23.28-.23 2.29c0 2.75-.12 3.18-1.81 6.71-.65 1.36-1.31 2.86-1.47 3.34a7.43 7.43 0 0 0 -.15 4.13 8 8 0 0 0 2.08 3.67 7.73 7.73 0 0 1 1.74 2.6l.19.54-.5.33a24.11 24.11 0 0 1 -6.3 2.56l-1.53.47-.64-.7a20.47 20.47 0 0 1 -3.77-6.7 14.87 14.87 0 0 1 -.93-6 23.38 23.38 0 0 1 1.32-7.8c.63-2.16 2.19-6.62 2.62-7.46a58.67 58.67 0 0 1 6.61-7.6c1.69-1.67 1.84-1.73 3.57-1.37 1.35.28 1.41.27 1.41-.1s-.09-.33-1.32-.55a10 10 0 0 0 -1.77-.18h-.45l-.23-1.07c-.23-1.06-.76-4.29-1-6.21a46.54 46.54 0 0 1 -.51-7.36c0-4.72.28-6.13 1.83-9.22 1.63-3.29 2.89-4.53 5.43-5.4 1.57-.54 7.34-2 8.79-2.22a21.13 21.13 0 0 1 6.75.18 15.78 15.78 0 0 1 3.5 1.41l.53.33-.53-.08a25 25 0 0 0 -2.74-.08 11 11 0 0 0 -3.42.35 15.76 15.76 0 0 0 -7.29 4l-.69.66-.22-.33a3.29 3.29 0 0 0 -1.64-1.1 2.53 2.53 0 0 0 -2.66 1.59 2 2 0 0 0 -.05 2 1.83 1.83 0 0 0 1.71.91h.68l-.25.51c-.14.27-.42.95-.62 1.5a15.34 15.34 0 0 0 3.39 15.87 15.83 15.83 0 0 0 13.8 4.58l.6-.08-1.07 1a9.26 9.26 0 0 0 -1.34 1.49l-.26.5-.9-.05a3.16 3.16 0 0 1 -1-.15c-.06 0 0-.41.19-.79a3.82 3.82 0 0 0 .26-.71 1.67 1.67 0 0 0 -.32-.12c-.25-.07-.32 0-.62.76l-.34.84h-.51a34 34 0 0 1 -7.83-1.52 3.61 3.61 0 0 0 -1.17-.32c-1 .63 3.09 1.87 7.86 2.37 1.42.16 1.51.18 1.43.44s-.15.76-.24 1.37l-.16 1.1-1.27-.08c-.7 0-1.84-.16-2.53-.27a11.61 11.61 0 0 0 -1.28-.15 1.67 1.67 0 0 0 -.12.32c-.08.25 0 .29.89.44.53.09 1.69.2 2.59.24l1.61.07.09 1.69a54.75 54.75 0 0 0 1.29 8.5c1.07 5.47 1.25 7 1.16 10a15.55 15.55 0 0 1 -1.66 7.27 2.89 2.89 0 0 0 -.38 1.1c.41 1.08 2.1-2.86 2.56-6a19.86 19.86 0 0 0 .14-3.92c-.08-2.73-.21-3.63-1.22-8.75a50.33 50.33 0 0 1 -1.22-8.19l-.09-1.7h1.07c1.51 0 1.93-.1 1.88-.45s-.11-.28-1.31-.24a9.14 9.14 0 0 0 -1.39.12 5.33 5.33 0 0 1 .2-2.16l.15-.51.6.08a8.71 8.71 0 0 0 1.06.08c.39 0 .47.07.65.48a35.12 35.12 0 0 0 3.68 4.76 27.72 27.72 0 0 1 5.87 10.2c2.27 6.56 2.6 12.26.93 16.45l-.27.69-1.76-.38a13.74 13.74 0 0 1 -3.64-1.12l-.29-.18.37-1.12c1.88-5.86 1.06-12.97-2.66-22.29-1.2-3-1.64-3.94-1.87-3.94a.31.31 0 0 0 -.27.17 13.61 13.61 0 0 0 .86 2.4c2.51 6 3.77 10.57 4.15 15.08a20.83 20.83 0 0 1 -.94 8.48 16 16 0 0 0 -.78 4.24c-.31 3-.54 6-1 11.87l-.24 4.13.28.31a13.48 13.48 0 0 0 1.86 1.14c3.3 1.78 4.43 2.83 4.43 4.13 0 .51-.06.66-.52 1.09-.9.86-1.73 1.09-4.42 1.21-5.32.24-10.08.12-10.48-.28-.07-.08-.05-2.6 0-6.36s.14-7.46.09-9.16c-.09-2.73-.08-2.92.14-2.92a16.76 16.76 0 0 0 3.53-1.16 17 17 0 0 0 4.35-3c1-.94 1-1 .82-1.24s-.27-.2-1.24.73a16.05 16.05 0 0 1 -7.23 3.94 11.79 11.79 0 0 1 -3.88.36 18.71 18.71 0 0 1 -6.67-1c-1.39-.4-1.6-.39-1.61.09a20.26 20.26 0 0 0 4.3 1.25 8.85 8.85 0 0 1 1.24.3 6.76 6.76 0 0 1 -.4 1.47c-.46 1.35-2.87 9.87-2.87 10.13a6.41 6.41 0 0 0 1.24 1c2.59 1.77 4.4 4 4.18 5.12-.17.89-1.27 1.6-3.15 2a48.71 48.71 0 0 1 -8.22.19z" fill="#0f6371"/><path d="m32.35 11.37a13.69 13.69 0 0 1 4-3.12 16.58 16.58 0 0 1 6.69-1.61h.7l-.17.18a9.84 9.84 0 0 1 -2.1 1.34 35 35 0 0 1 -4.35 1.64 35 35 0 0 0 -4.3 1.61c-.38.18-.71.32-.72.32a1.66 1.66 0 0 1 .25-.36z" fill="#d6eaff"/><path d="m49.87 31.42a37.78 37.78 0 0 1 2.44-4 29.62 29.62 0 0 0 2.39-3.91 12.21 12.21 0 0 0 1.3-3.75c.16-1.16.16-1.16.26-.39.42 3.36-1.31 7.2-4.84 10.73-.98.9-1.55 1.44-1.55 1.32z" fill="#d6eaff"/><path d="m47 73.27a2.62 2.62 0 0 0 1.2 1.73 3.1 3.1 0 0 0 1.37.33 3.29 3.29 0 0 0 1.71-.51c2.3-1.42 3.86-5.36 3.89-9.81a36.93 36.93 0 0 0 -4.17-15.79 26.08 26.08 0 0 0 -4.12-5.64 6.05 6.05 0 0 1 -1.11-1.41c-.3-.43-.65-.84-1-1.24a4.76 4.76 0 0 1 -1.31-2c-.06-.9 1.58-2.23 3.16-3.52l.57-.46a15.42 15.42 0 0 0 11-14.68 15.41 15.41 0 0 0 -10.85-14.66c-4.14-3.35-9.23-4.15-15.58-2.45l-2.42.63c-6 1.52-7.2 1.84-10.15 8.4-1.53 3.41-1.34 9.79-.58 15.59a11.49 11.49 0 0 0 -6.61 2.13c-.3-.19-.61-.36-.93-.54a7.35 7.35 0 0 1 -3-2.45 2 2 0 0 0 1.88.25 1.65 1.65 0 0 0 1.05-1.82c-.09-.47-.55-1.52-2.83-1.7a2 2 0 0 0 .63-2.23 1.89 1.89 0 0 0 -1.92-1.3c-.43.06-1.39.38-1.71 2.23a2.73 2.73 0 0 0 -2.37-.93 1.06 1.06 0 0 0 -.75.85 2.55 2.55 0 0 0 1 2.17c-1.45.13-1.83.9-1.92 1.16a1.21 1.21 0 0 0 .44 1.4 2.55 2.55 0 0 0 2.78-.26 2.11 2.11 0 0 0 .4 2.19 1.28 1.28 0 0 0 .87.33 1.5 1.5 0 0 0 .75-.21 2.26 2.26 0 0 0 1-1.64 8.26 8.26 0 0 0 3.25 2.64l.68.39c-2.06 1.92-3.3 4.77-4.83 8.38-4.08 9.94-5 27.77-.24 36.75 2.55 4.76 7.64 4.92 12.25 4.93-.62 6-.9 10.46-1.16 17.42v.16l.14.08c.93.55 4 1 7.14 1 2.78 0 5.61-.32 7-1.14a2.35 2.35 0 0 0 1.37-2c0-2.51-4.47-5.44-5.43-6l2.09-7.5c.44-1.58 1-3.18 1.3-4a19.71 19.71 0 0 0 2 .12 17.05 17.05 0 0 0 3.28-.33.11.11 0 0 0 0 0h-.44a110.35 110.35 0 0 1 0 11.32c-.07 2.19-.14 4.45-.14 7.28v.18l.17.07a16.59 16.59 0 0 0 5 .53c1.59 0 3.27-.07 4.78-.14 1.22-.06 2.38-.12 3.28-.12.11 0 2.53-.47 3.31-1.89a2.08 2.08 0 0 0 0-1.87c-.69-1.66-3-2.85-4.64-3.73a6.77 6.77 0 0 1 -1.78-1.1c.07-1 .15-2.18.25-3.55.29-3.54.6-8.09 1-12.02zm-41.93-45.27a2.74 2.74 0 0 1 0-.66 4.27 4.27 0 0 1 .26-.92.43.43 0 0 0 .06-.21c0-.14-.17-.32-.5-.53a.37.37 0 0 0 -.16-.05.53.53 0 0 0 -.31.15 3.6 3.6 0 0 1 -1.54.74 1.32 1.32 0 0 1 -.6 0 .56.56 0 0 1 -.43-.38.47.47 0 0 1 .15-.5 1.4 1.4 0 0 1 .68-.33 3.81 3.81 0 0 1 1.32-.07 3 3 0 0 0 .65 0 1.27 1.27 0 0 0 1.12.67h.27-.04a1.32 1.32 0 0 0 .55-.25v.22a3.86 3.86 0 0 1 .07.91 2.11 2.11 0 0 1 -.24 1.06 1 1 0 0 1 -.64.59.65.65 0 0 1 -.31 0l-.09.25.09-.25a.66.66 0 0 1 -.36-.44zm2.23-2.85s-.08 0-.27.09l-.17.07a1.06 1.06 0 0 0 .13-.7 1.21 1.21 0 0 0 0-.18h.34a6.08 6.08 0 0 1 1.37.1c.88.16 1.44.52 1.54 1a.8.8 0 0 1 -.24.67 1.18 1.18 0 0 1 -1.59 0 3.06 3.06 0 0 1 -.73-.78c-.18-.2-.23-.27-.38-.27zm-1.71-.34a.19.19 0 0 1 .14-.06.5.5 0 0 1 .18.05.14.14 0 0 1 -.07.05.41.41 0 0 1 -.19 0zm2.41-2.26a2 2 0 0 1 -.61.71l-.57.37-.33.21a1.36 1.36 0 0 0 -.3-.13 1.15 1.15 0 0 0 -.39-.05 2.2 2.2 0 0 0 .08-.58 5.72 5.72 0 0 1 .12-.95 2.16 2.16 0 0 1 .46-.95 1.09 1.09 0 0 1 .34-.18 1.25 1.25 0 0 1 .39 0 1.11 1.11 0 0 1 .56.34 1.13 1.13 0 0 1 .25 1.21zm-2.67 1.17a1.18 1.18 0 0 0 -.77.78.8.8 0 0 0 0 .15l-.28-.22a7.12 7.12 0 0 1 -.87-.75 1.63 1.63 0 0 1 -.56-1.32.2.2 0 0 1 .07-.1c0-.05 0-.05.1-.06a.43.43 0 0 1 .17 0 2.43 2.43 0 0 1 1.39.74c.1.08.31.3.47.47s.25.26.33.33zm31.41 57.37c0-1.3-.08-2.35 0-2.65a18.92 18.92 0 0 0 3.5-1.16 17.7 17.7 0 0 0 4.42-3c1-.94 1.23-1.17.83-1.6a.49.49 0 0 0 -.37-.21c-.26 0-.49.22-1.22.92a16 16 0 0 1 -7.11 3.88 12 12 0 0 1 -3.82.35h-.05a18.52 18.52 0 0 1 -6.54-1c-1.1-.32-1.48-.38-1.74-.19a.63.63 0 0 0 -.22.53c0 .59 4.48 1.5 4.52 1.51l1 .22c-.06.23-.18.66-.36 1.2-.31.91-2.89 9.85-2.89 10.22 0 .12 0 .27 1.36 1.19 2.73 1.86 4.24 4 4.07 4.85s-1.19 1.41-2.95 1.8a48.72 48.72 0 0 1 -8.13.19c-.58-.06-1.49-.21-2-.33l-.77-.18.08-2c.2-4.88.5-9.15 1-14.74l.27-2.8h.49c1.27 0 1.95-.57 2.56-2.19a10.41 10.41 0 0 0 -.16-7.62 10.54 10.54 0 0 0 -1.31-1.86c-1.86-2.11-2.32-3.12-2.33-5.16 0-1.67.07-1.91 1.64-5.24 1.76-3.69 1.94-4.34 2-6.86 0-2.08-.05-2.61-.34-2.83a.45.45 0 0 0 -.42-.08c-.43.12-.43.44-.43 2.55 0 2.72-.1 3.09-1.78 6.6-.65 1.36-1.32 2.88-1.48 3.37a7.65 7.65 0 0 0 -.25 4.23 8.28 8.28 0 0 0 2.19 3.78 7.33 7.33 0 0 1 1.69 2.5l.12.35-.33.22a23.81 23.81 0 0 1 -6.22 2.53l-1.38.42-.53-.58a20 20 0 0 1 -3.71-6.6 14.68 14.68 0 0 1 -.92-5.88 23.23 23.23 0 0 1 1.28-7.74c.62-2.15 2.18-6.59 2.6-7.42a56.57 56.57 0 0 1 6.58-7.58c1.66-1.65 1.72-1.63 3.32-1.3 1 .2 1.35.28 1.57.1a.56.56 0 0 0 .16-.46c0-.54-.32-.59-1.53-.81a11 11 0 0 0 -1.84-.19h-.22l-.18-.83c-.22-1.05-.76-4.29-1-6.2a47.29 47.29 0 0 1 -.46-7.31c0-4.68.27-6.05 1.79-9.1 1.62-3.24 2.8-4.42 5.29-5.27 1.53-.52 7.33-2 8.74-2.21a21.33 21.33 0 0 1 6.64.17 17.13 17.13 0 0 1 2.89 1.1c-.55 0-1.34 0-2.11 0a11.37 11.37 0 0 0 -3.52.31 15.91 15.91 0 0 0 -7.4 4.07l-.46.44-.05-.07a3.53 3.53 0 0 0 -1.81-1.2 2.78 2.78 0 0 0 -3 1.73 2.31 2.31 0 0 0 0 2.29 2.11 2.11 0 0 0 2 1h.25l-.06.12c-.14.28-.42 1-.62 1.53a15.62 15.62 0 0 0 3.43 16.09 16.14 16.14 0 0 0 13.79 4.72l-.47.44a8.79 8.79 0 0 0 -1.39 1.57l-.19.35h-.72c-.33 0-.59-.06-.74-.08a3.23 3.23 0 0 1 .17-.49c.32-.78.34-.89.18-1a1.21 1.21 0 0 0 -.41-.16c-.51-.16-.68.24-.94.91l-.27.66h-.32a32.85 32.85 0 0 1 -7.75-1.5c-1.16-.45-1.33-.34-1.41-.29a.49.49 0 0 0 -.27.54c.24 1 5 2 8.24 2.32.46 0 1 .1 1.19.15-.06.25-.16.86-.23 1.35l-.12.86-1-.06c-.7 0-1.82-.16-2.51-.27-1.4-.21-1.42-.19-1.52-.07s-.07.08-.17.42a.46.46 0 0 0 0 .41c.12.2.37.25 1.07.37.54.09 1.72.2 2.62.24l1.38.07.08 1.44a54.88 54.88 0 0 0 1.29 8.54c1.06 5.43 1.24 7 1.16 9.89a15.45 15.45 0 0 1 -1.63 7.16c-.19.38-.5 1.06-.4 1.32a.46.46 0 0 0 .48.35c.91-.1 2.24-4 2.59-6.39a19.48 19.48 0 0 0 .15-4c-.09-2.75-.22-3.66-1.24-8.8a51.63 51.63 0 0 1 -1.21-8.14l-.07-1.43h.79c1.34 0 1.81-.08 2-.33a.5.5 0 0 0 .11-.42c-.07-.51-.39-.5-1.58-.46-.52 0-.91 0-1.17.07a8.25 8.25 0 0 1 .25-1.77l.08-.3.38.05a9.2 9.2 0 0 0 1.09.09c.27 0 .27 0 .4.31a37.11 37.11 0 0 0 3.73 4.83 27.34 27.34 0 0 1 5.82 10.12c2.26 6.5 2.58 12.12.93 16.26l-.19.48-1.54-.33a13.69 13.69 0 0 1 -3.51-1.12l-.11-.07.3-.93c2-5.87 1.12-13-2.62-22.4-1.47-3.71-1.73-4.11-2.12-4.11a.57.57 0 0 0 -.52.33c0 .09-.1.27.87 2.6 2.52 6 3.76 10.51 4.14 15a20.69 20.69 0 0 1 -.94 8.38 16.5 16.5 0 0 0 -.84 4.32c-.3 3-.53 5.93-.95 11.87l-.29 4.13.07.2.29.31a12.43 12.43 0 0 0 1.92 1.2c3.17 1.7 4.3 2.72 4.3 3.89 0 .42 0 .5-.44.9-.85.8-1.64 1-4.25 1.14-5.81.26-9.63.06-10.23-.18 0-.46 0-2.5.08-6.2s.13-7.47.08-9.17zm-32.69-27.66a49.55 49.55 0 0 1 4.86-18.06c2.21-4.5 4.63-6.27 9.26-6.74h.26c0 .62.66 4.1.92 5.33l.23 1-.5.48c-1.5 1.43-4.94 5.17-6.23 6.79s-1.73 2.53-3.21 7c-1.58 4.77-2.2 7.68-2.21 10.55a20.72 20.72 0 0 0 4.75 13 23.81 23.81 0 0 0 3.61 3.44 14.42 14.42 0 0 0 2.81 1.54s0 .07 0 .12c0 .2-.08.75-.12 1.21v.58h-1.29c-.8 0-1.84 0-2.32-.09-3-.27-5-1-6.45-2.45a8.55 8.55 0 0 1 -1.83-2.72 32.28 32.28 0 0 1 -2.59-10.74 85.53 85.53 0 0 1 .05-10.24zm15.34 23.31a12 12 0 0 1 -4.24-2.59l-.42-.39 1.42-.44a25.78 25.78 0 0 0 5.23-2c.27-.16.5-.28.65-.35v1.3a7.78 7.78 0 0 1 -.91 4c-.36.63-.64.73-1.73.47zm8.1-64.69a.77.77 0 0 1 -.54-.51 1.68 1.68 0 0 1 .38-1.45 1.58 1.58 0 0 1 1.17-.71 1.56 1.56 0 0 1 1.21.6l.38.42a1.5 1.5 0 0 1 -.15.21c-.16.2-.47.62-.69 1s-.38.49-.57.52a2.91 2.91 0 0 1 -1.19-.08zm12.51 22.45a14.9 14.9 0 0 1 -7.7-3.88 14.24 14.24 0 0 1 -.3-20.53 14.92 14.92 0 0 1 14.61-3.8 18.19 18.19 0 0 1 4.9 2.41 15.66 15.66 0 0 1 4.67 6 11.17 11.17 0 0 1 1 5.51 9.87 9.87 0 0 1 -.35 3.64 14.73 14.73 0 0 1 -11.74 10.65 19 19 0 0 1 -5.09 0zm11.17 37.61c.59.11 1 .22 1.28.27a6.37 6.37 0 0 1 -1 1.26 3.36 3.36 0 0 1 -1.82.87 2.7 2.7 0 0 1 -.86-.24c-.57-.25-1-.78-1-2.49v-.72a18.43 18.43 0 0 0 3.4 1.05zm-5.5-36.67-.08-.16.41-.08zm-.09-30.28.05-.16.31.21z"/><path d="m43 6.47a16.5 16.5 0 0 0 -6.7 1.63 13.78 13.78 0 0 0 -4.08 3.16c-.28.34-.31.4-.26.5l.16.11s.06 0 .79-.35a37 37 0 0 1 4.29-1.6 33.19 33.19 0 0 0 4.36-1.65 9.92 9.92 0 0 0 2.16-1.37l.17-.18-.14-.3zm-1.59 1.53a32.53 32.53 0 0 1 -4.33 1.63 34.82 34.82 0 0 0 -4.31 1.62h-.06a13.74 13.74 0 0 1 3.74-2.82 16.08 16.08 0 0 1 6.62-1.59h.23a11.31 11.31 0 0 1 -1.89 1.16z"/><path d="m56.39 19.35c-.07-.58-.09-.69-.27-.69s-.19 0-.34 1.07a11.8 11.8 0 0 1 -1.24 3.74 28.74 28.74 0 0 1 -2.38 3.89 38.91 38.91 0 0 0 -2.46 4.06l.11.18h.07c.14 0 .42-.19 1.62-1.4 3.58-3.56 5.32-7.42 4.89-10.85zm-5.14 10.65-.87.85c.38-.66 1.09-1.79 2.07-3.27a30.32 30.32 0 0 0 2.41-3.93 12.71 12.71 0 0 0 1.24-3.65c.15 3.17-1.55 6.68-4.85 10z"/></svg>