<?xml version="1.0" encoding="UTF-8" standalone="no"?>
<!-- Created with Inkscape (http://www.inkscape.org/) -->

<svg
   xmlns:dc="http://purl.org/dc/elements/1.1/"
   xmlns:cc="http://creativecommons.org/ns#"
   xmlns:rdf="http://www.w3.org/1999/02/22-rdf-syntax-ns#"
   xmlns:svg="http://www.w3.org/2000/svg"
   xmlns="http://www.w3.org/2000/svg"
   xmlns:sodipodi="http://sodipodi.sourceforge.net/DTD/sodipodi-0.dtd"
   xmlns:inkscape="http://www.inkscape.org/namespaces/inkscape"
   width="100px"
   height="150pxS"
   viewBox="0 25 100 100"
   version="1.1"
   id="svg8"
   inkscape:version="0.92.4 (5da689c313, 2019-01-14)"
   sodipodi:docname="spaceman_logo.svg">
  <defs
     id="defs2" />
  <sodipodi:namedview
     id="base"
     pagecolor="#ffffff"
     bordercolor="#666666"
     borderopacity="1.0"
     inkscape:pageopacity="0.0"
     inkscape:pageshadow="2"
     inkscape:zoom="0.7"
     inkscape:cx="122.3252"
     inkscape:cy="287.77642"
     inkscape:document-units="mm"
     inkscape:current-layer="layer1"
     showgrid="true"
     inkscape:window-width="1280"
     inkscape:window-height="961"
     inkscape:window-x="-8"
     inkscape:window-y="-8"
     inkscape:window-maximized="1">
    <inkscape:grid
       type="xygrid"
       id="grid934" />
  </sodipodi:namedview>
  <metadata
     id="metadata5">
    <rdf:RDF>
      <cc:Work
         rdf:about="">
        <dc:format>image/svg+xml</dc:format>
        <dc:type
           rdf:resource="http://purl.org/dc/dcmitype/StillImage" />
        <dc:title></dc:title>
      </cc:Work>
    </rdf:RDF>
  </metadata>
  <g
     inkscape:label="Layer 1"
     inkscape:groupmode="layer"
     id="layer1"
     transform="translate(0,-147)">
    <path
       style="fill:none;stroke:#000000;stroke-width:0.26458332px;stroke-linecap:butt;stroke-linejoin:miter;stroke-opacity:1"
       d="m 394.60715,21.549851 c 2.96084,3.734321 7.35954,24.28497 -0.56698,24.28497 -3.27094,0 3.18357,-6.222966 2.64583,-9.449406 -0.84804,-5.08825 -1.26203,-10.138738 -2.07885,-14.835564 z"
       id="path930"
       inkscape:connector-curvature="0" />
    <path
       style="fill:none;stroke:#000000;stroke-width:0.26458332px;stroke-linecap:butt;stroke-linejoin:miter;stroke-opacity:1"
       d="m 370.88913,30.715772 c -0.99735,-9.788486 14.47413,-8.80929 13.55991,-7.60677 -3.52317,3.523166 -10.18367,4.441539 -13.55991,7.60677 z"
       id="path932"
       inkscape:connector-curvature="0"
       sodipodi:nodetypes="ccc" />
    <path
       style="fill:#a7ac93;stroke:#000000;stroke-width:0.71428573;stroke-miterlimit:4;stroke-dasharray:none"
       d=""
       id="path944"
       inkscape:connector-curvature="0"
       transform="scale(0.26458333)" />
    <g
       id="g986"
       transform="translate(-48.448923,124.43245)">
      <path
         sodipodi:nodetypes="cssssssc"
         inkscape:connector-curvature="0"
         id="path826"
         d="m 90.860714,81.961539 c -1.062656,-0.176105 -3.006555,-0.895424 -3.930987,-0.01461 -2.4266,2.312104 -7.49659,7.688913 -8.110873,9.327603 -1.70817,4.556794 -4.138937,11.198538 -3.872277,15.861728 0.610838,10.68201 9.519852,17.50359 12.743593,16.8449 1.28758,-0.26308 3.006515,-5.11624 1.211522,-8.9989 -0.89938,-1.9454 -3.57334,-3.008 -3.789545,-7.05332 -0.241359,-4.51596 5.071353,-8.028781 3.525236,-14.8317"
         style="fill:none;stroke:#000000;stroke-width:0.5291667;stroke-linecap:butt;stroke-linejoin:miter;stroke-miterlimit:4;stroke-dasharray:none;stroke-opacity:1" />
      <path
         sodipodi:nodetypes="ccscsc"
         inkscape:connector-curvature="0"
         id="path830"
         d="m 86.060452,123.76288 c -0.883052,8.00737 -1.215541,12.67042 -1.513871,20.72106 1.675655,0.98218 10.978956,1.51659 13.87475,-0.19199 4.364579,-2.5752 -4.234389,-7.72513 -4.234389,-7.72513 l 2.143596,-7.69823 c 0.45927,-1.64936 1.067679,-3.32976 1.352684,-4.11353"
         style="fill:none;stroke:#000000;stroke-width:0.5291667;stroke-linecap:butt;stroke-linejoin:miter;stroke-miterlimit:4;stroke-dasharray:none;stroke-opacity:1" />
      <path
         sodipodi:nodetypes="ccsscc"
         inkscape:connector-curvature="0"
         id="path834"
         d="m 102.99851,124.83184 c 0.42665,7.34859 -0.0945,11.11715 -0.0945,18.61533 2.76493,0.99696 9.6845,0.26041 12.88696,0.26531 0,0 4.24234,-0.76254 3.14418,-3.39747 -1.06207,-2.54837 -6.21825,-4.01276 -6.44001,-4.89982 0.31594,-4.16968 0.80496,-13.0221 1.55915,-18.80432"
         style="fill:none;stroke:#000000;stroke-width:0.5291667;stroke-linecap:butt;stroke-linejoin:miter;stroke-miterlimit:4;stroke-dasharray:none;stroke-opacity:1" />
      <path
         sodipodi:nodetypes="cssccc"
         inkscape:connector-curvature="0"
         id="path836"
         d="m 112.45365,88.797036 c 0.31248,0.982096 2.87649,2.701212 5.2493,7.095934 2.17434,4.027133 4.18813,10.54334 4.16174,15.68977 -0.0338,6.58387 -3.42231,11.33265 -6.58195,9.75282 -1.36279,-0.68139 -1.41578,-3.44236 -1.22843,-4.7247 3.68911,-8.55153 -0.17908,-19.307281 -3.77976,-27.308777"
         style="fill:none;stroke:#000000;stroke-width:0.5291667;stroke-linecap:butt;stroke-linejoin:miter;stroke-miterlimit:4;stroke-dasharray:none;stroke-opacity:1" />
      <path
         sodipodi:nodetypes="csc"
         inkscape:connector-curvature="0"
         id="path846"
         d="m 91.734126,123.2748 c 1.54647,0.52912 3.927653,1.16045 5.903575,1.4147 4.720089,0.60735 10.343679,-0.65348 14.538839,-5.29706"
         style="fill:none;stroke:#000000;stroke-width:0.5291667;stroke-linecap:butt;stroke-linejoin:miter;stroke-miterlimit:4;stroke-dasharray:none;stroke-opacity:1" />
      <ellipse
         ry="15.095988"
         rx="15.37947"
         cy="66.773361"
         cx="109.50238"
         id="path850"
         style="fill:none;stroke:#000000;stroke-width:0.5291667;stroke-miterlimit:4;stroke-dasharray:none" />
      <path
         sodipodi:nodetypes="cssc"
         inkscape:connector-curvature="0"
         id="path856"
         d="m 87.219167,81.894722 c -1.606578,-6.710121 -3.02301,-18.151281 -0.827103,-23.042471 3.255853,-7.252125 4.384666,-6.738812 12.399993,-8.886512 5.338033,-1.430321 10.760503,-1.379298 15.451243,2.483665"
         style="fill:none;stroke:#000000;stroke-width:0.5291667;stroke-linecap:butt;stroke-linejoin:miter;stroke-miterlimit:4;stroke-dasharray:none;stroke-opacity:1" />
      <path
         sodipodi:nodetypes="cssc"
         inkscape:connector-curvature="0"
         id="path860"
         d="M 86.178571,74.561011 C 78.32237,74.74999 76.32314,79.019516 73.675118,85.471125 69.55387,95.512086 68.664395,113.10839 73.426714,121.99443 c 2.521492,4.70487 7.511433,4.79181 12.507513,4.79181"
         style="fill:none;stroke:#000000;stroke-width:0.5291667;stroke-linecap:butt;stroke-linejoin:miter;stroke-miterlimit:4;stroke-dasharray:none;stroke-opacity:1" />
      <path
         sodipodi:nodetypes="cc"
         inkscape:connector-curvature="0"
         id="path862"
         d="m 89.461951,116.3598 c -2.559251,2.05412 -5.892045,2.67977 -8.811283,3.65285"
         style="fill:none;stroke:#000000;stroke-width:0.5291667;stroke-linecap:butt;stroke-linejoin:miter;stroke-miterlimit:4;stroke-dasharray:none;stroke-opacity:1" />
      <path
         inkscape:connector-curvature="0"
         id="path864"
         d="m 114.05431,116.61086 c 1.91415,1.30427 4.42658,1.39298 6.3311,1.93713"
         style="fill:none;stroke:#000000;stroke-width:0.5291667;stroke-linecap:butt;stroke-linejoin:miter;stroke-miterlimit:4;stroke-dasharray:none;stroke-opacity:1" />
      <path
         sodipodi:nodetypes="cc"
         inkscape:connector-curvature="0"
         id="path866"
         d="m 97.61235,82.97098 c 2.9859,1.89121 12.5629,2.315105 12.42597,2.315105"
         style="fill:none;stroke:#000000;stroke-width:0.5291667;stroke-linecap:butt;stroke-linejoin:miter;stroke-miterlimit:4;stroke-dasharray:none;stroke-opacity:1" />
      <path
         sodipodi:nodetypes="cc"
         inkscape:connector-curvature="0"
         id="path868"
         d="m 101.36559,87.900883 c 3.28962,0.609288 5.75287,0.571369 8.57823,0.31452"
         style="fill:none;stroke:#000000;stroke-width:0.5291667;stroke-linecap:butt;stroke-linejoin:miter;stroke-miterlimit:4;stroke-dasharray:none;stroke-opacity:1" />
      <path
         inkscape:connector-curvature="0"
         id="path870"
         d="m 108.11052,83.184377 c -4.81211,10.241373 5.62243,22.518813 -1.06908,34.076863"
         style="fill:none;stroke:#000000;stroke-width:0.5291667;stroke-linecap:butt;stroke-linejoin:miter;stroke-miterlimit:4;stroke-dasharray:none;stroke-opacity:1" />
      <path
         inkscape:connector-curvature="0"
         id="path884"
         d="m 74.044528,72.119226 c 0.593723,2.902069 3.055298,3.640208 4.866799,4.784317"
         style="fill:none;stroke:#000000;stroke-width:0.79374999;stroke-linecap:butt;stroke-linejoin:miter;stroke-miterlimit:4;stroke-dasharray:none;stroke-opacity:1" />
      <path
         inkscape:connector-curvature="0"
         id="path894"
         d="m 72.289518,69.46604 c 0.481625,-5.154844 5.576409,-1.221802 2.071788,0.971432 6.218546,-0.0049 2.332211,5.788388 -0.316778,1.681754 0.958026,4.537661 -3.94641,4.459316 -2.218751,0.489483 -3.629316,2.913889 -5.292535,-1.554912 -1.168161,-1.371884 -2.859093,-2.172214 -0.993869,-4.598025 1.631902,-1.770785 z"
         style="fill:none;stroke:#000000;stroke-width:0.5291667;stroke-linecap:butt;stroke-linejoin:miter;stroke-miterlimit:4;stroke-dasharray:none;stroke-opacity:1" />
      <path
         inkscape:connector-curvature="0"
         id="path898"
         d="M 97.720419,56.925146 C 94.612165,51.928603 90.379943,60.37 96.083394,59.13012"
         style="fill:none;stroke:#000000;stroke-width:0.5291667;stroke-linecap:butt;stroke-linejoin:miter;stroke-miterlimit:4;stroke-dasharray:none;stroke-opacity:1" />
      <path
         sodipodi:nodetypes="csc"
         inkscape:connector-curvature="0"
         id="path900"
         d="m 112.5009,88.903342 c -0.88414,-1.270518 -2.29899,-2.460726 -2.36719,-3.45646 -0.0788,-1.150193 1.96892,-2.67513 3.84974,-4.22404"
         style="fill:none;stroke:#000000;stroke-width:0.5291667;stroke-linecap:butt;stroke-linejoin:miter;stroke-miterlimit:4;stroke-dasharray:none;stroke-opacity:1" />
      <path
         transform="scale(0.26458333)"
         inkscape:connector-curvature="0"
         id="path904"
         d="m 326.12195,466.94824 c -4.76861,-1.329 -11.55587,-5.46414 -16.45802,-10.02705 l -2.8456,-2.64867 7.00016,-2.16251 c 9.5795,-2.95933 15.44954,-5.26077 19.57459,-7.67451 1.91568,-1.12095 3.62031,-1.90065 3.78807,-1.73266 0.16776,0.16798 0.29858,2.95689 0.29071,6.19757 -0.0157,6.46119 -1.15853,11.42817 -3.59888,15.64136 -1.79806,3.10431 -3.42957,3.61085 -7.75103,2.40647 z"
         style="fill:#abc837;stroke:#000000;stroke-width:2;stroke-miterlimit:4;stroke-dasharray:none" />
      <path
         transform="scale(0.26458333)"
         inkscape:connector-curvature="0"
         id="path906"
         d="m 436.83813,457.57432 c -2.97768,-1.35143 -4.24994,-4.22433 -4.55419,-10.28381 l -0.22452,-4.47159 1.13758,0.60882 c 2.25485,1.20676 8.16481,2.98432 13.50038,4.06057 2.99261,0.60364 5.61275,1.2013 5.82254,1.32813 0.55885,0.33787 -2.29552,4.29378 -4.48566,6.21675 -2.32019,2.03716 -5.49141,3.52525 -7.51253,3.52525 -0.83338,0 -2.491,-0.44285 -3.6836,-0.98412 z"
         style="fill:#abc837;stroke:#000000;stroke-width:2;stroke-miterlimit:4;stroke-dasharray:none" />
      <path
         transform="scale(0.26458333)"
         inkscape:connector-curvature="0"
         id="path908"
         d="m 404.02232,307.31157 c -11.37617,-2.06215 -21.39451,-7.10998 -29.62202,-14.92531 -22.71476,-21.5768 -23.18896,-56.89935 -1.06093,-79.02738 14.60072,-14.60072 36.30291,-20.24798 56.19027,-14.62162 5.54534,1.56884 14.50233,5.97637 18.85695,9.27906 7.49386,5.6836 14.61768,14.81681 17.96943,23.03799 3.37356,8.2747 3.90378,11.13537 3.92987,21.20266 0.0218,8.39069 -0.0824,9.47222 -1.35203,14.03278 -5.9552,21.39227 -23.41785,37.22891 -45.24931,41.036 -5.15752,0.89939 -14.66018,0.89254 -19.66223,-0.0142 z"
         style="fill:#454837;stroke:#000000;stroke-width:2;stroke-miterlimit:4;stroke-dasharray:none" />
      <path
         transform="scale(0.26458333)"
         inkscape:connector-curvature="0"
         id="path910"
         d="m 356.69609,222.44052 c -3.39108,-0.98555 -3.92573,-5.29092 -1.11471,-8.97641 2.96446,-3.88667 7.20179,-4.12376 10.43873,-0.58408 2.17886,2.38266 2.16241,2.31971 0.9911,3.79112 -0.58207,0.73121 -1.7211,2.31139 -2.53117,3.51152 -1.26691,1.87694 -1.66303,2.21348 -2.83285,2.40678 -1.79313,0.29631 -3.60685,0.24175 -4.9511,-0.14893 z"
         style="fill:#c4c8b7;stroke:#000000;stroke-width:2;stroke-miterlimit:4;stroke-dasharray:none" />
      <ellipse
         ry="0.59649372"
         rx="0.70870537"
         cy="71.33049"
         cx="72.724983"
         id="path916"
         style="fill:none;stroke:#000000;stroke-width:0.5291667;stroke-miterlimit:4;stroke-dasharray:none" />
      <path
         inkscape:connector-curvature="0"
         id="path918"
         d="m 72.55155,71.652435 c -0.39072,-0.144598 -0.330004,-0.547143 0.09307,-0.617014 0.243649,-0.04024 0.51704,0.12201 0.518244,0.307557 7.94e-4,0.117991 -0.09803,0.245359 -0.230156,0.296707 -0.100636,0.03911 -0.292571,0.04553 -0.381156,0.01275 z"
         style="fill:#d4aa00;stroke:#000000;stroke-width:0.5291667;stroke-miterlimit:4;stroke-dasharray:none" />
      <path
         transform="scale(0.26458333)"
         inkscape:connector-curvature="0"
         id="path920"
         d="m 273.42636,284.39214 c -1.02122,-0.35313 -1.801,-1.26348 -2.14701,-2.50652 -0.14418,-0.51797 -0.19675,-2.14117 -0.0938,-2.89629 0.14502,-1.06374 0.57585,-2.59069 1.04822,-3.71515 0.0834,-0.19861 0.15171,-0.38852 0.15171,-0.42202 0,-0.0562 -1.12245,-0.95477 -1.4274,-1.14276 -0.12056,-0.0743 -0.18023,-0.0463 -0.63135,0.29602 -2.1973,1.66757 -4.3435,2.70238 -6.26617,3.02131 -0.92693,0.15376 -2.06298,0.10472 -2.75519,-0.11892 -2.41919,-0.78158 -3.1101,-3.08998 -1.42594,-4.76419 0.70996,-0.70577 1.66608,-1.1926 3.0043,-1.52969 1.37765,-0.34702 2.60739,-0.41454 5.3033,-0.29119 1.11117,0.0508 2.0293,0.0837 2.04028,0.073 0.011,-0.0107 -0.74189,-0.60232 -1.67306,-1.31469 -1.72439,-1.31919 -2.55818,-2.04487 -3.40943,-2.96736 -1.92599,-2.0872 -2.83341,-4.3851 -2.34986,-5.95064 0.10952,-0.35461 0.19426,-0.49007 0.49409,-0.78991 0.29984,-0.29984 0.43531,-0.38457 0.78991,-0.4941 1.70671,-0.52715 4.24515,0.5411 6.88705,2.89826 0.36972,0.32988 1.19874,1.16237 1.84225,1.84999 0.64352,0.68761 1.1827,1.23753 1.19819,1.22205 0.0155,-0.0155 0.10942,-0.81957 0.20874,-1.78685 0.20263,-1.97346 0.29262,-2.52872 0.6049,-3.73228 0.44468,-1.71389 1.10833,-3.05748 1.9795,-4.00756 0.39295,-0.42854 1.11563,-0.92772 1.62763,-1.12427 0.44517,-0.17089 1.52405,-0.23993 2.03544,-0.13025 0.92982,0.19941 1.93016,0.79096 2.66402,1.57537 1.55035,1.65713 1.92623,3.88422 1.00024,5.92644 -0.46386,1.02301 -1.52853,2.27286 -2.62496,3.08152 -0.28134,0.2075 -1.28216,0.86025 -2.22403,1.45056 -0.94187,0.59031 -1.71315,1.09169 -1.71396,1.11419 -8e-4,0.0225 1.36935,0.055 3.04478,0.0722 3.16262,0.0326 3.71108,0.0699 5.33369,0.36356 3.76729,0.68172 6.17595,2.32511 6.62757,4.52187 0.24239,1.17898 -0.19741,2.47163 -1.17873,3.46454 -1.89069,1.91302 -4.69988,1.95228 -7.2896,0.10186 -0.99015,-0.70749 -2.16839,-1.9525 -3.00826,-3.17874 -0.20961,-0.30605 -0.39079,-0.55645 -0.40261,-0.55645 -0.0118,0 -0.21623,0.0822 -0.45426,0.18258 -0.23802,0.10041 -0.64742,0.27123 -0.90979,0.37959 l -0.47702,0.19701 0.13968,0.80418 c 0.23462,1.35074 0.29541,2.19467 0.26177,3.63386 -0.0452,1.9345 -0.31088,3.1209 -0.99922,4.46236 -0.71954,1.40228 -1.7985,2.38094 -3.02111,2.74027 -0.46549,0.13681 -1.39084,0.13026 -1.80449,-0.0128 z m 2.22077,-11.59774 c 1.88976,-0.36109 3.16699,-1.99162 2.87865,-3.67494 -0.2031,-1.18566 -1.17026,-2.22348 -2.44694,-2.6257 -0.35908,-0.11312 -0.58992,-0.13892 -1.23113,-0.13759 -0.69875,10e-4 -0.84678,0.0218 -1.29185,0.17767 -1.16345,0.4074 -2.00945,1.25029 -2.28188,2.27348 -0.12701,0.477 -0.11099,1.21664 0.0366,1.69165 0.42469,1.36658 1.86852,2.34502 3.51578,2.38256 0.17924,0.004 0.54858,-0.0351 0.82075,-0.0871 z"
         style="fill:#80e5ff;stroke:#000000;stroke-width:2;stroke-miterlimit:4;stroke-dasharray:none" />
      <path
         transform="scale(0.26458333)"
         inkscape:connector-curvature="0"
         id="path922"
         d="m 309.19522,477.55674 c -11.44511,-1.02089 -19.44924,-4.07922 -24.98293,-9.54585 -2.93348,-2.89793 -4.77831,-5.63684 -7.11735,-10.56672 -4.95752,-10.44868 -8.08491,-23.36836 -9.86339,-40.74704 -0.7243,-7.07753 -0.61633,-30.7281 0.17771,-38.92857 2.62765,-27.1371 8.09036,-47.43414 18.45521,-68.57143 8.50581,-17.34611 17.95668,-24.22157 35.80265,-26.04626 2.00537,-0.20505 2.05357,-0.18915 2.05357,0.67746 0,1.32614 2.38514,15.08369 3.49494,20.1589 l 0.96935,4.43295 -2.28089,2.17419 c -5.67887,5.41323 -18.56374,19.44395 -23.47906,25.56705 -4.84386,6.03407 -6.37341,9.37471 -11.93716,26.07143 -5.92903,17.79291 -8.26459,28.93429 -8.31033,39.64286 -0.0723,16.9195 6.24743,34.17293 17.73265,48.41202 3.06312,3.79759 9.74364,10.17077 13.42366,12.80611 2.89309,2.07179 8.67883,5.24275 10.33303,5.66316 0.74621,0.18965 0.81668,0.3641 0.63689,1.57669 -0.11118,0.74989 -0.30687,2.76969 -0.43485,4.48844 l -0.23271,3.125 -5.58276,-0.0491 c -3.07051,-0.027 -7.05672,-0.18059 -8.85823,-0.34128 z"
         style="fill:#c8c4b7;stroke:#000000;stroke-width:2;stroke-miterlimit:4;stroke-dasharray:none" />
      <path
         transform="scale(0.26458333)"
         inkscape:connector-curvature="0"
         id="path926"
         d="m 332.31471,547.66699 c -2.22233,-0.24809 -5.72167,-0.8228 -7.77629,-1.27714 l -3.73568,-0.82607 0.33708,-8.40913 c 0.74304,-18.53615 1.87401,-34.54301 3.93976,-55.76004 l 1.11874,-11.49049 h 2.72773 c 4.37938,0 6.59146,-1.92972 8.76712,-7.64809 3.37339,-8.86638 3.13412,-20.28281 -0.58662,-27.99002 -0.81268,-1.68338 -2.97226,-4.75172 -4.79909,-6.81853 -7.22941,-8.17911 -9.01625,-12.15892 -9.05709,-20.17282 -0.0329,-6.46333 0.30764,-7.55386 6.30963,-20.20305 6.54261,-13.78855 7.22707,-16.19074 7.26751,-25.50635 0.0369,-8.50793 -0.26298,-10.38019 -1.6065,-10.02901 -0.79999,0.20911 -0.88599,1.05031 -0.88599,8.66584 0,10.38433 -0.43904,12.0177 -6.81508,25.35429 -2.45695,5.13916 -4.96551,10.82126 -5.57456,12.62691 -1.66024,4.92204 -1.86243,10.4677 -0.56825,15.58551 1.31922,5.2168 3.05245,8.27837 7.87001,13.90155 4.27153,4.98584 5.52758,6.86051 6.56315,9.79565 l 0.72285,2.04876 -1.8975,1.2557 c -4.91048,3.2496 -11.66395,6.00145 -23.78667,9.69238 l -5.80838,1.76845 -2.41219,-2.63859 c -5.44943,-5.96089 -11.23056,-16.23101 -14.25571,-25.32511 -2.93875,-8.83436 -3.53767,-12.67803 -3.51356,-22.54877 0.0246,-10.07783 0.91636,-15.31913 5.01278,-29.46294 2.37054,-8.18479 8.28326,-25.01146 9.90979,-28.20167 2.04545,-4.01185 14.62943,-18.48878 25.09242,-28.86694 6.36456,-6.31295 6.95682,-6.54138 13.46884,-5.19467 5.10156,1.05503 5.33597,1.03864 5.33597,-0.37303 0,-1.10478 -0.33961,-1.24519 -4.98581,-2.06132 -2.74219,-0.48168 -5.7493,-0.80051 -6.68245,-0.7085 l -1.69665,0.16727 -0.86985,-4.04061 c -0.86326,-4.01003 -2.89696,-16.21656 -3.91295,-23.48604 -1.3355,-9.55561 -1.75823,-16.32 -1.75177,-28.03174 0.01,-17.85154 1.05889,-23.15849 6.88903,-34.85026 6.19103,-12.41549 10.93302,-17.12613 20.55275,-20.41685 5.90162,-2.01883 27.73874,-7.54092 33.21875,-8.40024 7.32845,-1.14917 19.92877,-0.80773 25.49254,0.69079 4.55731,1.22745 10.44939,3.619 13.29592,5.39672 l 2.02031,1.26172 -2.27285,-0.37775 c -1.25006,-0.20776 -5.90939,-0.34936 -10.35406,-0.31466 -6.89571,0.0538 -8.79142,0.25022 -12.92242,1.33874 -11.26335,2.96788 -19.73841,7.62799 -27.55952,15.15391 l -2.60121,2.50304 -0.83297,-1.27127 c -1.05909,-1.61637 -4.14346,-3.66823 -6.18973,-4.11767 -3.79061,-0.83255 -8.06955,1.7213 -10.06547,6.0075 -1.44606,3.1054 -1.51158,5.55689 -0.20574,7.69853 1.30764,2.14461 3.44907,3.18125 6.57162,3.18125 h 2.56073 l -0.95841,1.89404 c -0.52713,1.04172 -1.57057,3.59866 -2.31876,5.6821 -7.51796,20.93469 -2.51794,44.37264 12.80029,60.00219 13.70024,13.97869 31.9747,20.10162 52.07565,17.44817 l 2.27285,-0.30003 -4.05488,3.79095 c -2.23018,2.08502 -4.50302,4.63364 -5.05076,5.6636 l -0.99589,1.87264 -3.38215,-0.18583 c -1.86019,-0.10221 -3.55096,-0.35464 -3.75728,-0.56095 -0.20631,-0.20632 0.11991,-1.54684 0.72496,-2.97894 0.60505,-1.4321 1.04576,-2.64885 0.97935,-2.70388 -0.0664,-0.055 -0.60532,-0.24876 -1.19762,-0.4305 -0.94512,-0.28999 -1.23286,0.0577 -2.35136,2.84144 l -1.27445,3.17188 -1.94179,-0.14868 c -10.30658,-0.78915 -23.21632,-3.29451 -29.58784,-5.74205 -2.14911,-0.82555 -4.13785,-1.35861 -4.41942,-1.18459 -3.82453,2.36369 11.67864,7.04383 29.69579,8.96465 5.36865,0.57235 5.69353,0.67036 5.41155,1.63263 -0.16499,0.56305 -0.56967,2.89985 -0.89928,5.19291 l -0.59928,4.16918 -4.81227,-0.3003 c -2.64675,-0.16517 -6.94694,-0.62636 -9.55598,-1.02488 -2.60904,-0.39852 -4.79683,-0.66217 -4.86175,-0.58588 -0.0649,0.0763 -0.26442,0.61602 -0.44334,1.19943 -0.29926,0.97585 -0.0314,1.11063 3.34653,1.68394 2.01949,0.34275 6.4246,0.74943 9.78911,0.90375 l 6.1173,0.28056 0.34307,6.36926 c 0.45403,8.42934 1.29752,14.02349 4.84432,32.12815 4.05068,20.67669 4.73636,26.53617 4.39949,37.59543 -0.3581,11.75608 -2.00659,18.99021 -6.26365,27.48689 -0.95428,1.90465 -1.61351,3.77975 -1.46495,4.16688 1.56588,4.08063 7.94406,-10.81065 9.68507,-22.61196 0.6578,-4.45884 0.78085,-7.73805 0.55603,-14.81743 -0.328,-10.32854 -0.80301,-13.70975 -4.64758,-33.0825 -3.29546,-16.60584 -4.15752,-22.39719 -4.60485,-30.93592 l -0.33738,-6.43972 h 4.05527 c 5.71221,0 7.30261,-0.37825 7.11189,-1.69145 -0.14393,-0.99108 -0.41994,-1.04107 -4.94679,-0.89595 -2.6369,0.0845 -5.00154,0.28174 -5.25476,0.43824 -0.55361,0.34215 -0.0319,-5.32357 0.74976,-8.14165 l 0.5428,-1.95705 2.3022,0.31555 c 1.26621,0.17356 3.06292,0.31555 3.99269,0.31555 1.46171,0 1.79272,0.24466 2.44581,1.80773 0.86448,2.06898 6.90104,9.87635 13.90545,17.98457 10.99347,12.7259 16.70073,22.63095 22.21386,38.55252 8.58054,24.78006 9.79211,46.32084 3.49719,62.17721 l -1.02692,2.58671 -6.65995,-1.42647 c -6.94271,-1.48704 -11.90496,-3.0091 -13.7485,-4.21704 l -1.08167,-0.70873 1.39701,-4.20882 c 7.25515,-21.85788 4.07845,-48.81442 -9.90028,-84.01087 -4.54398,-11.4411 -6.18883,-14.89975 -7.08599,-14.89975 -0.42264,0 -0.87874,0.28746 -1.01356,0.63879 -0.13482,0.35134 1.33984,4.43121 3.27702,9.06638 9.5177,22.77337 14.25524,39.95469 15.71324,56.98618 0.97718,11.41467 -0.14727,21.49402 -3.57557,32.05106 -1.70118,5.23858 -2.10564,7.43147 -2.98102,16.16244 -1.15007,11.47065 -2.03593,22.48418 -3.60787,44.85506 l -1.09341,15.56063 1.09086,1.16117 c 0.59997,0.63864 3.75226,2.59201 7.00509,4.34082 12.49988,6.72027 16.76732,10.69067 16.77148,15.60408 0.002,1.93452 -0.25806,2.47206 -1.99059,4.12018 -3.40566,3.23972 -6.547,4.09825 -16.69534,4.56285 -20.09522,0.91996 -38.09152,0.43458 -39.60428,-1.06817 -0.27775,-0.27592 -0.19857,-9.82979 0.1993,-24.04558 0.38505,-13.75783 0.51183,-28.18393 0.30424,-34.61668 -0.33313,-10.32229 -0.29903,-11.02892 0.53225,-11.02892 1.5476,0 9.174,-2.50528 13.17033,-4.32647 5.40608,-2.46363 11.84063,-6.87406 16.44251,-11.27017 3.72466,-3.55811 3.88109,-3.79556 3.08222,-4.67829 -0.80631,-0.89096 -1.00251,-0.77619 -4.68141,2.7382 -7.51021,7.17439 -16.8286,12.26346 -27.30701,14.91324 -4.80618,1.21538 -6.22807,1.34659 -14.66608,1.35333 -10.12097,0.008 -13.73314,-0.54422 -25.20153,-3.85341 -5.27832,-1.52306 -6.07831,-1.47883 -6.10547,0.33752 -0.009,0.59568 9.78197,3.43799 16.26353,4.72135 2.42108,0.47938 4.52175,0.99138 4.66816,1.13779 0.14641,0.14641 -0.53334,2.63544 -1.51054,5.5312 -1.72567,5.11369 -10.84258,37.32412 -10.84258,38.30729 0,0.26939 2.10238,1.92144 4.67195,3.67122 9.80885,6.67946 16.63093,15.01112 15.822,19.32308 -0.63252,3.3716 -4.8232,6.04972 -11.90766,7.60977 -4.46544,0.98332 -24.56733,1.45704 -31.06219,0.73199 z"
         style="fill:#89a02c;stroke:#000000;stroke-width:2;stroke-miterlimit:4;stroke-dasharray:none" />
      <path
         inkscape:connector-curvature="0"
         id="path936"
         d="m 96.856397,60.812128 c 3.330233,-5.485545 7.491423,-7.937505 14.552083,-7.9375 -3.12537,3.852923 -12.721307,3.869112 -14.552081,7.937499"
         style="fill:none;stroke:#000000;stroke-width:0.5291667;stroke-linecap:butt;stroke-linejoin:miter;stroke-miterlimit:4;stroke-dasharray:none;stroke-opacity:1" />
      <path
         inkscape:connector-curvature="0"
         id="path940"
         d="m 116.03869,79.049478 c 4.54079,-3.398797 9.58271,-9.938744 6.61458,-15.874999 0.96719,6.773488 -4.64536,10.705753 -6.61458,15.874999 z"
         style="fill:none;stroke:#000000;stroke-width:0.5291667;stroke-linecap:butt;stroke-linejoin:miter;stroke-miterlimit:4;stroke-dasharray:none;stroke-opacity:1" />
      <path
         transform="scale(0.26458333)"
         inkscape:connector-curvature="0"
         id="path952"
         d="m 375.37202,218.93053 c 3.8097,-4.50404 9.57416,-8.98091 15.19484,-11.80081 7.19442,-3.60943 14.54986,-5.37916 25.25382,-6.07609 l 2.65165,-0.17265 -0.63135,0.68323 c -1.04039,1.12589 -4.97686,3.6294 -7.94692,5.05406 -3.91494,1.8779 -6.35793,2.79867 -16.43509,6.19442 -9.7649,3.29053 -12.35697,4.26137 -16.25074,6.08657 -1.44417,0.67696 -2.67641,1.23083 -2.7383,1.23083 -0.0619,0 0.34404,-0.5398 0.90209,-1.19956 z"
         style="fill:#6c6753;stroke:#000000;stroke-width:2;stroke-miterlimit:4;stroke-dasharray:none" />
      <path
         transform="scale(0.26458333)"
         inkscape:connector-curvature="0"
         id="path954"
         d="m 441.57957,294.6954 c 0,-0.60857 4.1455,-7.34475 9.21039,-14.96631 6.04855,-9.10175 6.90908,-10.50897 9.03417,-14.77348 2.5934,-5.20431 4.11539,-9.79794 4.74965,-14.33531 0.61062,-4.36831 0.61809,-4.37931 0.98698,-1.45275 1.59896,12.68552 -4.94749,27.19202 -18.29523,40.54098 -3.52679,3.52711 -5.68596,5.42081 -5.68596,4.98687 z"
         style="fill:#6c6753;stroke:#000000;stroke-width:2;stroke-miterlimit:4;stroke-dasharray:none" />
    </g>
  </g>
</svg>
